<?xml version="1.0" encoding="UTF-8" standalone="no"?>
<svg
   viewBox="0 0 600 200"
   version="1.1"
   id="svg19"
   sodipodi:docname="demos2025_experience.svg"
   inkscape:version="1.4.2 (f4327f4, 2025-05-13)"
   width="600"
   height="200"
   xmlns:inkscape="http://www.inkscape.org/namespaces/inkscape"
   xmlns:sodipodi="http://sodipodi.sourceforge.net/DTD/sodipodi-0.dtd"
   xmlns="http://www.w3.org/2000/svg"
   xmlns:svg="http://www.w3.org/2000/svg">
  <defs
     id="defs19" />
  <sodipodi:namedview
     id="namedview19"
     pagecolor="#ffffff"
     bordercolor="#000000"
     borderopacity="0.25"
     inkscape:showpageshadow="2"
     inkscape:pageopacity="0.0"
     inkscape:pagecheckerboard="0"
     inkscape:deskcolor="#d1d1d1"
     inkscape:zoom="4.435"
     inkscape:cx="200.11274"
     inkscape:cy="100.11274"
     inkscape:window-width="3840"
     inkscape:window-height="2036"
     inkscape:window-x="3348"
     inkscape:window-y="-12"
     inkscape:window-maximized="1"
     inkscape:current-layer="svg19" />
  <path
     d="m 134.20201,193.96926 a 100,100 0 0 1 -15.9333,4.34785 L 100,100 Z"
     fill="#fe8f33"
     id="path1" />
  <path
     d="M 118.26871,198.31711 A 100,100 0 0 1 40.03881,180.02909 L 100,100 Z"
     fill="#013976"
     id="path2" />
  <path
     d="M 40.03881,180.02909 A 100,100 0 0 1 2.62536,77.23647 L 100,100 Z"
     fill="#4caf50"
     id="path3" />
  <path
     d="M 2.62536,77.23647 A 100,100 0 0 1 30.93168,27.68425 L 100,100 Z"
     fill="#8bc34a"
     id="path4" />
  <path
     d="m 30.93168,27.68425 a 100,100 0 0 1 141.38407,3.24743 L 100,100 Z"
     fill="#009688"
     id="path5" />
  <path
     d="m 172.31575,30.93168 a 100,100 0 0 1 -3.24743,141.38407 L 100,100 Z"
     fill="#00acc1"
     id="path6" />
  <path
     d="m 169.06832,172.31575 a 100,100 0 0 1 -34.86631,21.65351 L 100,100 Z"
     fill="#5c6bc0"
     id="path7" />
  <g
     id="g20"
     transform="translate(-108.34273,-131.11612)">
    <circle
       cx="325"
       cy="175"
       r="5"
       fill="#fe8f33"
       id="circle7" />
    <text
       x="335"
       y="179.29001"
       alignment-baseline="middle"
       id="text13">No Experience 3%</text>
  </g>
  <g
     id="g21"
     transform="translate(-108.34273,-131.11612)">
    <circle
       cx="325"
       cy="195"
       r="5"
       fill="#013976"
       id="circle8" />
    <text
       x="335"
       y="199.284"
       alignment-baseline="middle"
       id="text14">1-3 13%</text>
  </g>
  <g
     id="g22"
     transform="translate(-108.34273,-131.11612)">
    <circle
       cx="325"
       cy="215"
       r="5"
       fill="#4caf50"
       id="circle9" />
    <text
       x="335"
       y="219.284"
       alignment-baseline="middle"
       id="text15">4-6 18%</text>
  </g>
  <g
     id="g23"
     transform="translate(-108.34273,-131.11612)">
    <circle
       cx="325"
       cy="235"
       r="5"
       fill="#8bc34a"
       id="circle10" />
    <text
       x="335"
       y="239.284"
       alignment-baseline="middle"
       id="text16">7-9 9%</text>
  </g>
  <g
     id="g24"
     transform="translate(-108.34273,-131.11612)">
    <circle
       cx="325"
       cy="255"
       r="5"
       fill="#009688"
       id="circle11" />
    <text
       x="335"
       y="259.29001"
       alignment-baseline="middle"
       id="text17">10-19 25%</text>
  </g>
  <g
     id="g25"
     transform="translate(-108.34273,-131.11612)">
    <circle
       cx="325"
       cy="275"
       r="5"
       fill="#00acc1"
       id="circle12" />
    <text
       x="335"
       y="279.29001"
       alignment-baseline="middle"
       id="text18">20-29 25%</text>
  </g>
  <g
     id="g26"
     transform="translate(-108.34273,-131.11612)">
    <circle
       cx="325"
       cy="295"
       r="5"
       fill="#5c6bc0"
       id="circle13" />
    <text
       x="335"
       y="299.29001"
       alignment-baseline="middle"
       id="text19">30+ 7%</text>
  </g>
</svg>
