<?xml version="1.0" encoding="UTF-8" standalone="no"?>
<svg
   viewBox="0 0 600 200"
   version="1.1"
   id="svg22"
   sodipodi:docname="demos2025_roles.svg"
   inkscape:version="1.4.2 (f4327f4, 2025-05-13)"
   width="600"
   height="200"
   xmlns:inkscape="http://www.inkscape.org/namespaces/inkscape"
   xmlns:sodipodi="http://sodipodi.sourceforge.net/DTD/sodipodi-0.dtd"
   xmlns="http://www.w3.org/2000/svg"
   xmlns:svg="http://www.w3.org/2000/svg">
  <defs
     id="defs22" />
  <sodipodi:namedview
     id="namedview22"
     pagecolor="#ffffff"
     bordercolor="#000000"
     borderopacity="0.25"
     inkscape:showpageshadow="2"
     inkscape:pageopacity="0.0"
     inkscape:pagecheckerboard="0"
     inkscape:deskcolor="#d1d1d1"
     inkscape:zoom="4.435"
     inkscape:cx="229.19955"
     inkscape:cy="104.62232"
     inkscape:window-width="3840"
     inkscape:window-height="2036"
     inkscape:window-x="3348"
     inkscape:window-y="-12"
     inkscape:window-maximized="1"
     inkscape:current-layer="svg22" />
  <path
     d="M 134.20201,193.96926 A 100,100 0 1 1 70.84771,4.34362 L 100,100 Z"
     fill="#fe8f33"
     id="path1" />
  <path
     d="M 70.84771,4.34362 A 100,100 0 0 1 91.72655,0.34284 L 100,100 Z"
     fill="#013976"
     id="path2" />
  <path
     d="m 91.72655,0.34284 a 100,100 0 0 1 51.73796,9.59698 L 100,100 Z"
     fill="#4caf50"
     id="path3" />
  <path
     d="m 143.46451,9.93982 a 100,100 0 0 1 55.21484,73.86185 L 100,100 Z"
     fill="#8bc34a"
     id="path4" />
  <path
     d="m 198.67935,83.80167 a 100,100 0 0 1 0.0941,31.81256 L 100,100 Z"
     fill="#009688"
     id="path5" />
  <path
     d="m 198.77346,115.61423 a 100,100 0 0 1 -5.53252,20.52616 L 100,100 Z"
     fill="#00acc1"
     id="path6" />
  <path
     d="m 193.24094,136.14039 a 100,100 0 0 1 -9.74638,18.89287 L 100,100 Z"
     fill="#5c6bc0"
     id="path7" />
  <path
     d="m 183.49456,155.03326 a 100,100 0 0 1 -49.29255,38.936 L 100,100 Z"
     fill="#7e57c2"
     id="path8" />
  <g
     id="g22"
     transform="translate(-101.57835,-91.206313)">
    <circle
       cx="315.52988"
       cy="127.19843"
       r="5"
       fill="#fe8f33"
       id="circle8" />
    <text
       x="325.52988"
       y="130.34843"
       alignment-baseline="middle"
       id="text15">Software Engineer 51%</text>
  </g>
  <g
     id="g23"
     transform="translate(-101.57835,-75.97418)">
    <circle
       cx="315.52988"
       cy="147.19843"
       r="5"
       fill="#013976"
       id="circle9" />
    <text
       x="325.52988"
       y="150.31842"
       alignment-baseline="middle"
       id="text16">Data Scientist/ML Engineer 3%</text>
  </g>
  <g
     id="g24"
     transform="translate(-101.57835,-79.025113)">
    <circle
       cx="315.52988"
       cy="167.19843"
       r="5"
       fill="#4caf50"
       id="circle10" />
    <text
       x="325.52988"
       y="171.69843"
       alignment-baseline="middle"
       id="text17">Student 8%</text>
  </g>
  <g
     id="g25"
     transform="translate(-101.57835,-31.228861)">
    <circle
       cx="315.52988"
       cy="187.19843"
       r="5"
       fill="#8bc34a"
       id="circle11" />
    <text
       x="325.52988"
       y="191.69843"
       alignment-baseline="middle"
       id="text18">Other 15%</text>
  </g>
  <g
     id="g27"
     transform="translate(-101.57835,-68.177928)">
    <g
       id="g26">
      <circle
         cx="315.52988"
         cy="207.19843"
         r="5"
         fill="#009688"
         id="circle12" />
    </g>
    <text
       x="325.52988"
       y="210.31842"
       alignment-baseline="middle"
       id="text19">Developer Relations 5%</text>
  </g>
  <g
     id="g28"
     transform="translate(-101.57835,-106.12698)">
    <circle
       cx="315.52988"
       cy="227.19843"
       r="5"
       fill="#00acc1"
       id="circle13" />
    <text
       x="325.52988"
       y="230.31842"
       alignment-baseline="middle"
       id="text20">Program/Product Manager 3%</text>
  </g>
  <g
     id="g30"
     transform="translate(-101.57835,-143.07604)">
    <circle
       cx="315.52988"
       cy="247.19843"
       r="5"
       fill="#5c6bc0"
       id="circle14" />
    <text
       x="325.52988"
       y="251.69843"
       alignment-baseline="middle"
       id="text21">Academic 3%</text>
  </g>
  <g
     id="g29"
     transform="translate(-101.57835,-213.43725)">
    <circle
       cx="315.52988"
       cy="267.19843"
       r="5"
       fill="#7e57c2"
       id="circle15" />
    <text
       x="325.52988"
       y="270.10843"
       alignment-baseline="middle"
       id="text22">DevOps/SRE 10%</text>
  </g>
</svg>
