<?xml version="1.0" encoding="UTF-8" standalone="no"?>
<svg
   viewBox="0 0 915.99998 915.99998"
   version="1.1"
   id="svg102"
   sodipodi:docname="pybeach-logo.svg"
   inkscape:version="1.4.2 (f4327f4, 2025-05-13)"
   width="916"
   height="916"
   inkscape:export-filename="C:\Users\stephen\Downloads\pybeach-logo.png"
   inkscape:export-xdpi="96"
   inkscape:export-ydpi="96"
   xmlns:inkscape="http://www.inkscape.org/namespaces/inkscape"
   xmlns:sodipodi="http://sodipodi.sourceforge.net/DTD/sodipodi-0.dtd"
   xmlns="http://www.w3.org/2000/svg"
   xmlns:svg="http://www.w3.org/2000/svg">
  <sodipodi:namedview
     id="namedview102"
     pagecolor="#ffffff"
     bordercolor="#000000"
     borderopacity="0.25"
     inkscape:showpageshadow="2"
     inkscape:pageopacity="0.0"
     inkscape:pagecheckerboard="0"
     inkscape:deskcolor="#d1d1d1"
     inkscape:zoom="0.92515331"
     inkscape:cx="301.03119"
     inkscape:cy="626.92312"
     inkscape:window-width="3840"
     inkscape:window-height="2036"
     inkscape:window-x="3348"
     inkscape:window-y="-12"
     inkscape:window-maximized="1"
     inkscape:current-layer="svg102" />
  <defs
     id="defs1">
    <style
       id="style1">
      .cls-1 {
        fill: #35bdcb;
      }

      .cls-2 {
        fill: #fe8f34;
      }

      .cls-3 {
        fill: #0e64a9;
      }

      .cls-4 {
        fill: #fcfdfc;
      }

      .cls-5 {
        fill: #fecc33;
      }

      .cls-6 {
        fill: #0c62a8;
      }

      .cls-7 {
        fill: #feac33;
      }

      .cls-8 {
        fill: #33bccb;
      }

      .cls-9 {
        fill: #3093d2;
      }

      .cls-10 {
        fill: #feab33;
      }
    </style>
  </defs>
  <g
     id="Layer_1_Image"
     data-name="Layer 1 Image"
     style="display:inline"
     transform="matrix(0.99954389,0,0,0.9873282,-9.9280794,-26.093572)">
    <g
       id="g1458"
       inkscape:label="done">
      <path
         id="path2"
         style="display:inline"
         class="cls-9"
         d="m 858.86719,248 c -4.86119,12.40242 -18.60661,22.56396 -30.7168,12.66016 -3.18,7.5 -3.53,12.80046 -3,20.98046 4.81,0.31 12.51977,2.89907 16.50977,3.03907 16.35057,0.57356 18.23219,-13.5434 25.3457,-22.6836 A 458.20569,463.86838 0 0 0 858.86719,248 Z m 15.33593,27.39258 c -0.0323,0.0842 -0.0674,0.16689 -0.10351,0.24804 0.10339,0.0419 0.2032,0.0829 0.29687,0.125 a 458.20569,463.86838 0 0 0 -0.19336,-0.37304 z m 1.55665,3.04297 c -0.19418,0.45609 -0.48979,0.96176 -0.81055,1.53515 -5.13,9.11 -16.76906,23.34946 -28.28906,22.68946 -5.16,-0.29 -10.80977,-4.37102 -14.50977,-5.04102 -3.17,-0.58 -8.62133,0.83109 -11.36133,-0.12891 -1.86,-0.65 -1.81843,-5.04984 -4.64844,-6.33984 -8.76999,-4 -43.53992,-1.03125 -53.91992,1.46875 5.58,12.94 -12.02976,18.32117 -13.75976,27.70117 -0.97,5.29 1.05929,14.39977 -6.22071,16.25977 0.06,4.15 -1.92015,10.55031 -1.16015,15.32031 -0.62,1.82 -4.12985,3.27875 -5.83985,2.21875 -5.5,-3.39 -0.31046,-37.88953 -13.98046,-38.51953 -0.11,4.43 -3.55,10.58047 -2,15.98047 14.12,14.9 -6.32899,28.77898 -12.70899,10.20898 -1.92,-5.58 -2.17172,-12.42898 -3.76172,-18.20898 -0.65,-2.38 -6.89,-20.03071 -7.5,-20.9707 l -0.002,-0.002 c -0.1175,-0.10454 -1.74672,-0.10195 -2.40625,-1.03711 -4.69,-6.63 -10.16031,-17.11945 -17.57031,-19.93945 -0.29,0.39 -2.54078,-1.00078 -3.05078,3.44922 -2.15,18.65 7.61929,36.7607 0.52929,56.4707 -0.92,2.55 -3.89929,6.15 -4.27929,7.75 -0.47,1.97 2.56054,5.05977 -2.18946,5.25977 -0.22,21.51 -0.47047,43.00922 -6.73047,63.69922 -1.99,6.59 -8.02929,17.05945 -9.02929,21.93945 -1.31,6.41 0.57031,14.36078 -0.67969,21.30078 -3.85,21.38 -26.02094,36.13922 -44.46094,44.44922 -49.94,22.51 -117.37914,1.54094 -170.36914,-2.53906 -13.36,-1.03 -20.68094,-1.99977 -33.46094,1.49023 -8.27,2.26 -16.41023,3.43047 -24.99023,3.98047 -4.27,7.32 -4.28906,13.51969 -12.03906,18.92969 -13.8,9.63 -27.48133,2.33929 -41.36133,1.52929 -16.38,-0.96 -22.73852,12.67047 -21.22852,27.23047 1.93,18.69 9.94899,29.84875 5.70899,50.71875 1.36,5.21 2.18047,10.37 3.98047,15.5 5.53,15.69 11.41078,22.23071 10.05078,40.97071 -1.02,14 -6.89117,16.19976 -12.20117,26.75976 -4.93,9.8 -8.78946,26.08977 -7.68946,37.00977 1.19,11.79 13.88914,27.34007 1.86914,37.58008 0.13,3.54999 -0.80898,7.22125 -1.95898,10.53124 -2.79,8.01001 -7.77,12.54876 -9.75,22.21876 -1.51,7.37999 -1.97125,13.02117 0.71875,20.20117 1.1,0.47 4.70117,5.86929 8.70117,6.77929 8.47,1.94 17.08992,-4.51914 20.66992,-11.86914 2.16,-4.42 2.85961,-15.53086 5.09961,-17.88086 3.14,-3.29 21.02953,-6.86078 23.26953,0.69922 3.1,10.43 -14.95929,16.73172 -16.77929,28.26172 1.72,6.59 2.35054,13.22016 4.81054,19.66016 0.9,2.37 4.29899,9.51953 5.70899,11.26953 2.78,3.45 7.25117,1.5393 6.45117,6.0293 1.37,-4.76 1.29883,-5.41969 2.04883,-10.42969 0.96,-6.37 10.15047,-9.20961 11.73047,-3.84961 2.14,7.25 -1.06078,19.83976 -5.80078,25.75976 10.74,0.43 5.63976,8.78 -0.99024,11.5 -4.20944,18.76345 -24.99241,29.81958 -20.51367,50.8125 A 458.20569,463.86838 0 0 0 468.14258,954.17578 458.20569,463.86838 0 0 0 926.34766,490.30664 458.20569,463.86838 0 0 0 875.75977,278.43555 Z" />
      <path
         id="path3"
         style="display:inline"
         class="cls-5"
         d="M 468.14258,26.4375 A 458.20569,463.86838 0 0 0 9.9355469,490.30664 458.20569,463.86838 0 0 0 60.414062,701.96289 c 12.359403,-5.44806 32.369,-6.40153 42.996098,1.19727 7.14,5.11 12.20929,15.86992 19.52929,21.41992 11.99,9.09 34.50133,11.69906 44.86133,-0.96094 7.01,-8.57 4.74961,-21.42937 10.59961,-30.35937 3.13,-4.78 10.60992,-5.27883 12.16992,-12.79883 2.79,-13.47 -10.93031,-21.38102 -6.32031,-36.29102 2.48,-8.01 17.41977,-14.33945 21.25977,-24.68945 10.09,-27.22 -24.96071,-36.81992 -18.22071,-68.16992 2.91,-13.52 11.4918,-12.6111 18.8418,-19.1211 5.84,-5.18 5.94914,-16.02984 8.36914,-23.58984 11.09,-34.55 53.11008,-81.40047 85.83008,-96.98047 68.81,-32.76 136.59015,-9.58844 206.66015,-5.14844 18.44,1.17 48.16039,-5.37023 54.90039,-24.99023 6.34001,-18.44 -1.29976,-33.51086 -2.50976,-51.38086 -1.33,-19.63 3.17953,-34.84024 4.01953,-52.99023 1.09,-23.56001 -20.04953,-35.37969 -20.01953,-53.92969 0.02,-10.42 5.12836,-11.91875 8.56836,-19.46875 5.23,-11.49 2.33023,-21.95071 3.49023,-33.47071 2.35,-23.42 34.66993,-20.07023 42.41993,-38.49023 2.92,-6.94 4.06015,-15.17055 7.66015,-22.31055 13.56534,-26.928198 53.17193,-11.880277 73.21289,-31.107419 A 458.20569,463.86838 0 0 0 468.14258,26.4375 Z" />
      <path
         id="path4"
         style="display:inline"
         class="cls-4"
         d="m 748.04492,123.04688 c -7.84581,5.39221 -14.34443,12.28427 -23.52539,12.58398 -11.21,0.37 -18.28047,-9.45031 -28.98047,-9.82031 -11.94,-0.42 -22.90914,4.29008 -29.11914,14.58007 -4.23,7 -5.01015,16.82883 -9.16015,22.79883 -9.74,14 -30.17914,11.90055 -32.86915,35.06055 -2.49,21.54 5.59954,44.22922 2.76954,66.69922 -0.99,7.95 -4.17961,16.36109 -4.84961,24.12109 -2.57,29.82 8.60976,54.77938 10.00976,83.85938 -7.27,37.65 -8.27101,65.96039 -48.79101,93.15039 -36.69,9.01 -61.41024,0.22945 -96.74024,-4.56055 -47.9,-6.49 -100.61922,-13.82914 -148.69922,-8.11914 -12.78,1.52 -23.83023,3.59898 -33.99023,11.95899 -4.58,3.77 -7.81047,9.31023 -11.98047,12.99023 -6.61,5.84 -16.82844,7.49031 -20.64844,16.32031 -3.53,8.17 -0.46023,17.07047 -2.49023,25.48047 -1.39,5.74 -5.87141,9.97906 -8.19141,14.78906 -6.43,13.31 -10.65851,24.14094 -11.47851,37.96094 -1.83,30.73 -5.1311,48.4693 8.6289,81.5293 1.73,4.14 5.43094,5.56992 4.71094,11.16992 -0.9,6.95 -17.48047,17.02125 -18.98047,29.03125 -2.47,19.81 13.02039,25.01984 14.90039,41.08984 1.69,14.39 -4.08992,35.54883 -16.91992,43.79883 -18.82,12.1 -39.39086,-13.12945 -59.13086,-5.18945 -4.47,1.79 -7.95008,6.72062 -11.83008,9.14062 -3.88,2.42 -15.07976,7.03875 -19.50976,7.46875 -11.08,1.07 -15.55016,-8.75968 -25.16016,-9.67968 -4.14486,-0.39475 -9.09392,1.2242 -13.37695,1.71093 10.14113,12.6249 20.93143,24.70084 32.32617,36.17774 6.59583,2.03888 13.27774,2.12731 20.30078,1.85156 8.33,-0.33 20.51969,-1.6093 28.67969,-3.2793 10.07,-2.06 17.22164,-7.19133 28.18164,-5.61132 8.26,1.18999 13.92836,10.13039 17.56836,16.90039 6.84,12.74 9.52008,26.52101 0.83008,39.29101 -4.74754,6.97538 -11.4322,8.57015 -18.26368,12.36914 3.50868,2.43523 7.05069,4.82088 10.625,7.15625 0.60654,0.36842 1.19859,0.74143 1.8086,1.11328 4.94,-1.21 12.72047,-3.81023 15.98047,-7.99023 2.71,-3.47 1.54,-6.38828 2,-9.98828 1.03,-7.99 4.41047,-14.24024 4.98047,-21.49024 0.4,-5.06 -1.36047,-10.7207 -0.98047,-14.4707 -3.85,-2.92 -14.68946,-15.29969 -4.43946,-15.92969 7.3,-0.45 9.18946,2.94946 13.43946,6.93946 3.9,3.65 4.59937,5.96039 10.60937,6.90039 1.82,0.29 3.7311,-0.13016 5.3711,0.0898 0.93,0.13 2.29,-0.22 3,0 3.95,-7.62 3.95,-13.49047 -3,-18.98047 -6.25,-2.43 -7.84047,-3.34 -14.98047,-4 -3.89,-0.36 -29.40946,0.39008 -26.93946,-7.41992 0.25,-0.77 11.95954,-6.25 14.26954,-7.75 26.93,-17.49 42.15085,-41.10898 37.38085,-73.95899 -2.14999,-14.75999 -11.90085,-30.30085 -0.13085,-43.63085 3.82,-4.33 13.82117,-8.50055 15.20117,-14.81055 1.94,-8.86 -8.46063,-15.68875 -8.64063,-23.71875 -0.18,-8.03 7.98032,-22.43 9.82031,-31.5 4.25,-20.87 -3.77093,-32.0307 -5.71093,-50.7207 -1.51,-14.56 8.38953,-24.87993 24.76953,-23.91993 13.88,0.81 24.02031,4.79016 37.82031,-4.83984 7.76,-5.41 7.77102,-11.60969 12.04102,-18.92969 8.58,-0.55 16.72023,-1.72047 24.99023,-3.98047 12.78,-3.49 20.09899,-2.52023 33.45899,-1.49023 52.99,4.08 120.42109,25.05101 170.37109,2.54101 18.44,-8.31 40.60898,-23.07117 44.45898,-44.45117 1.26,-6.95 14.73102,-16.12906 16.04102,-22.53906 1,-4.89 5.11937,-33.37117 7.10937,-39.95117 6.27,-20.69 2.44016,-30.80836 2.66016,-52.31836 0.1,-9.51 0.19024,-16.05024 -1.00977,-25.49024 -0.83999,-6.61 -3.42327,-14.32733 -8.00609,-22.00983 -4.58281,-7.6825 -11.16515,-15.33017 -10.27515,-20.99017 1.99,-12.64 22.26992,-1.03031 18.91992,3.42969 7.41,2.82 12.89031,13.31946 17.57031,19.93946 0.65953,0.93515 2.28875,0.93061 2.40625,1.03515 7.4e-4,8.5e-4 0.003,0.005 0.004,0.006 16.82,-0.6 2.17117,-16.7607 2.95117,-25.4707 0.7,-7.81 12.21961,-22.01977 12.09961,-29.00977 -0.03,-1.87 -0.97055,-3.08117 -2.06055,-4.45117 -1.4,0.74 -7.19023,3.08 -7.99023,4 -0.49,0.56 -5.20055,12.43992 -5.56055,13.91992 -0.68,2.74 -0.21859,11.96117 -3.0586,12.95117 -6.70999,2.36 -12.23132,-11.61086 -16.36132,-14.88085 -0.26,-0.21001 -5.66024,-2.94 -5.99024,-3 -7.09,-1.28001 -17.62929,9.14093 -14.52929,-7.03907 1.39,-7.3 7.08031,-16.71086 13.82031,-20.13086 4.32,-2.2 14.56953,-4.1189 19.01953,-2.6289 1.82,0.61 1.82016,2.71007 2.66016,3.83007 6.94,9.28 4.78078,3.2886 12.55078,2.0586 3.6,-0.57 7.94968,0.47141 11.42968,-0.0586 7.55,-1.15 9.41977,-8.39093 14.00977,-13.46093 13.18,-14.55 29.09953,-9.57914 44.26953,-1.36914 7.26,3.93 10.15008,10.06929 20.08008,8.77929 1.73,-0.22 3.89078,-1.95945 4.55078,-1.93945 1.77,-7.54 -0.86,-16.5007 8.25,-20.2207 6.4,-2.61 9.47,0.34968 14.5,2.92969 0.92,0.47 1.18,1.86976 1.5,2.00976 1.76,0.78 4.04875,0.0108 5.71875,1.30078 0.71918,-0.17047 3.47175,-0.49985 6.05664,-0.74023 -2.66144,-3.55111 -5.37331,-7.06319 -8.13476,-10.53516 -8.69578,-3.05235 -18.78072,-6.70448 -21.85157,-9.23437 -0.97,-0.8 -6.15031,-8.47032 -6.57031,-9.57032 -0.55562,-1.47836 0.53374,-1.72666 0.55078,-1.87695 v -0.002 c 0.11,-2.74 0.38,-4.36024 1,-6.99024 0.21042,-0.88571 0.43073,-1.7202 0.66016,-2.50586 -2.81989,-2.97662 -5.67887,-5.91503 -8.57617,-8.81445 0.0853,2.6963 -4.42278,12.03839 -5.06446,14.33008 -0.64,2.28 -1.66,5.72023 -2,7.99023 -0.34,2.27 -1.05929,6.44922 -1.02929,8.44922 0.09,5.31 4.50929,17.4893 2.52929,21.5293 -3.08,6.26 -18.63898,-3.12953 -23.20898,-4.76953 -3.26,-1.17 -11.08008,-2.22039 -12.58008,-3.15039 -3.63,-2.25 1.35008,-10.54836 1.33008,-14.06836 -0.02,-2.77 -3.75,-8.95024 -3,-10.99024 h 0.01 c -7.34,-1.6 -2.81937,-13.53984 0.14063,-17.33984 7.62786,-9.79609 31.1745,-7.46822 41.97656,-2.87305 -2.02907,-2.01992 -4.07669,-4.02065 -6.14258,-6.00195 -7.05416,1.47307 -17.6398,-4.07481 -23.99414,-2.76563 l 3.5293,-5.92968 c 1.52278,-1.66911 3.30238,-3.58503 5.28125,-5.22266 -0.54446,-0.47721 -1.09004,-0.95312 -1.63672,-1.42773 -0.98603,1.67085 -2.63436,3.22862 -4.94531,4.34961 -0.9,0.43 -9.37945,3.92078 -9.93945,4.05078 -13.13384,3.05948 -2.79379,-14.22093 4.38671,-17.24219 -2.59457,-2.11935 -5.21191,-4.20997 -7.85156,-6.27148 z m -48.88281,19.48632 c 2.71832,0.0866 5.15625,0.8211 6.82812,2.4961 h -0.01 c 7.21,7.23 -4.24969,14.56047 -10.17969,16.73047 -4.4,1.61 -7.69031,1.37015 -11.57031,2.41015 -4.13,1.11 -6.81992,4.10078 -10.91992,4.55078 -1.93,-2.07 6.38929,-18.18164 9.02929,-20.43164 3.50625,-2.9975 10.84196,-5.94642 16.82227,-5.75586 z m 29.52539,14.65039 c 2.97678,-0.18599 5.85,-0.16984 8.5625,0.0664 -3.12,6.95 -3.60977,12.0007 -4.00977,19.4707 -0.0386,0.65697 0.0398,1.33346 0,1.99024 -0.04,0.66 0.04,1.34 0,2 -0.06,1 0.05,2.01 0,3 -0.13,2.76 0.30993,5.6782 -0.0801,8.4082 -1.39,9.85 -14.73016,22.86102 -23.91016,26.04102 -9.18,3.18 -13.48094,-1.31047 -22.96094,-1.48047 -13.54,-0.25 -19.27898,6.03047 -30.95898,10.98047 -0.89,-4.65 2.42898,-7.72977 3.70898,-11.75977 3.48,-10.93 4.29141,-20.74953 11.44141,-30.51953 11.45375,-15.645 37.36959,-26.89529 58.20703,-28.19727 z m -77.18164,44.41211 c 9.22342,-0.36314 3.98859,24.76516 -7.51563,20.9336 -6.17,-2.06 3.73922,-8.80836 4.19922,-10.56836 0.69,-2.64 -3.22039,-8.6911 1.84961,-10.1211 0.52453,-0.14765 1.01319,-0.22628 1.4668,-0.24414 z M 271.69727,684.25586 c 5.69853,0.15315 4.93281,10.03789 2.38281,10.85352 -6.46,2.07 -11.32938,-9.31 -3.60938,-10.75 0.43875,-0.0819 0.84666,-0.11373 1.22657,-0.10352 z m -0.83789,13.04102 c 8.62086,-0.45857 19.12421,25.775 4.21093,26.5625 -10.35,0.54 -14.97109,-24.91954 -4.62109,-26.51954 0.13578,-0.0209 0.27332,-0.0357 0.41016,-0.043 z m 7.5625,38.62695 c 1.55912,-0.0582 2.9275,0.75461 3.28906,2.71679 1.22951,6.63736 -0.7687,21.39827 -8.98047,22.46876 -0.56948,-3.93952 0.99985,-7.61894 1.08984,-11.47852 0.07,-3.07 -1.49968,-5.82 -0.92969,-8.75 0.56407,-2.92719 3.25253,-4.87197 5.53126,-4.95703 z m -96.33985,51.4082 c 5.17089,0.0652 7.4343,5.0732 -0.25195,11.26758 -3.81,3.07 -9.72961,5.44992 -14.59961,8.91992 l -0.01,-0.01 c -0.51,0.37 -0.82117,3.11937 -3.45117,1.10937 -1.37,-1.04 -1.21023,-4.27984 -0.74023,-5.83984 0.24,-0.78 9.85133,-11.29914 10.86132,-12.11914 2.89063,-2.36563 5.84101,-3.35777 8.19141,-3.32813 z m 14.91211,5.53711 c 5.1852,-0.14519 4.09734,2.88 5.99609,4 h -0.01 c 1.67,0.99 5.98937,-0.66937 7.85937,0.64063 1.64,1.14 1.33922,5.51031 -0.0508,7.07031 -2.5,2.81 -26.88875,8.46047 -27.96875,7.48047 -0.2,-0.19 -1.0107,-4.75141 -0.9707,-5.44141 0.26,-4.21 8.31977,-12.80852 12.50977,-13.47852 1.02374,-0.16499 1.89402,-0.25074 2.63476,-0.27148 z m -49.59375,8.37891 c 0.38542,0.0104 0.79578,0.038 1.23047,0.082 1.16,3.26 8.47852,3.69 4.22852,8.25 -6.14188,6.59719 -17.40713,-8.65433 -5.45899,-8.33203 z"
         sodipodi:nodetypes="ccccccccccccccccccccccccsccccccccccccccccccccccccccccscccccccscccccscccscccccccccccccsscccccccccccccsccccsccsccccccccccccccscsccscccsssccscccsccccssscscsscssscssssccccscccccccccscccccccsssccss" />
      <path
         id="path5"
         style="display:inline"
         class="cls-10"
         d="m 678.71289,78.322266 c -20.03954,19.242931 -59.66332,4.184144 -73.22266,31.117184 -3.6,7.14 -4.74015,15.37055 -7.66015,22.31055 -7.75,18.41 -40.06992,15.07023 -42.41992,38.49023 -1.16,11.52 1.73976,21.98071 -3.49024,33.47071 -3.44,7.56 -8.55031,9.05875 -8.57031,19.46875 -0.03,18.54 21.09953,30.36968 20.01953,53.92969 -0.84,18.15 -5.34953,33.36023 -4.01953,52.99023 1.22,17.87 8.84977,32.94086 2.50977,51.38086 -6.74001,19.61 -36.45844,26.16023 -54.89844,24.99023 -70.08,-4.44 -137.85016,-27.61156 -206.66016,5.14844 -32.73,15.58 -74.75008,62.43047 -85.83008,96.98047 -2.42,7.55 -2.52109,18.39984 -8.37109,23.58984 -7.35,6.51 -15.92984,5.6011 -18.83984,19.1211 -6.73,31.36 28.3107,40.94992 18.2207,68.16992 -3.84,10.34 -18.77977,16.66945 -21.25977,24.68945 -4.61,14.91 9.10836,22.82102 6.31836,36.29102 -1.55,7.52 -9.03992,8.02883 -12.16992,12.79883 -5.85,8.93 -3.58961,21.78937 -10.59961,30.35937 -10.36,12.66 -32.86937,10.06094 -44.85937,0.96094 -7.32,-5.55 -12.3793,-16.30992 -19.5293,-21.41992 -10.629379,-7.59375 -30.612426,-6.64746 -42.972657,-1.20899 a 458.20569,463.86838 0 0 0 26.273438,45.34766 c 2.052963,-1.66862 4.14199,-0.25649 6.238281,-0.61914 12.049998,-2.07 18.109378,-4.44024 30.609378,0.25976 10.47,3.93 20.45101,13.39993 31.79101,12.16993 12.59,-1.37 12.70946,-15.52977 24.43946,-18.50977 10.59,-2.69 20.52062,2.53016 30.39062,1.41016 8.99,-1.03 14.45008,-7.03938 12.58008,-16.35938 -0.41,-2.06 -2.2307,-2.73977 -2.7207,-4.25977 -5.95,-18.27999 -0.45047,-31.87015 8.26953,-47.16015 7.45,-13.07 -1.48836,-21.45125 -0.56836,-35.53125 0.64,-9.83 6.70992,-19.12906 6.91992,-29.03906 0.46,-21.8 -14.22125,-36.28071 -11.78125,-57.72071 2.45,-21.52 9.17039,-43.38953 26.40039,-57.51953 8.32,-6.82 15.40039,-7.30055 21.65039,-17.31054 5.92,-9.48 6.13922,-17.92977 16.44922,-25.50977 54.86,-40.33 147.50008,-29.51961 211.33008,-19.84961 19.46,2.95 46.72093,11.87945 65.71093,5.18945 9.92,-3.49 22.8793,-12.97992 25.5293,-23.41992 3.53,-13.91 -2.2593,-25.48047 6.9707,-37.98047 3.69001,-5 9.43852,-5.55 10.47852,-14.5 3.01,-25.88 -13.28851,-63.6182 -17.72852,-90.1582 -8.96999,-53.61 -2.06054,-105.84133 39.68946,-143.61133 16.86,-15.25 29.22914,-18.65859 51.61914,-22.30859 10.87417,-1.77222 23.8437,-3.42666 35.34766,-4.60547 A 458.20569,463.86838 0 0 0 678.71289,78.322266 Z" />
      <path
         id="path6"
         style="display:inline"
         class="cls-2"
         d="m 716.33203,100.37695 c -11.50512,1.18315 -24.47591,2.83106 -35.35156,4.60352 -22.39,3.65 -34.77109,7.05859 -51.62109,22.30859 -41.75,37.77 -48.64946,90.00133 -39.68946,143.61133 4.44,26.54 20.74047,64.28016 17.73047,90.16016 -1.05,8.95 -6.79047,9.51 -10.48047,14.5 -9.23,12.49 -3.4407,24.06851 -6.9707,37.97851 -2.65,10.44 -15.6093,19.92188 -25.5293,23.42188 -18.99,6.69 -46.25898,-2.24141 -65.70898,-5.19141 -63.83,-9.67 -156.48008,-20.48039 -211.33008,19.84961 -10.31,7.58 -10.53117,16.03172 -16.45117,25.51172 -6.25,10.01 -13.33039,10.48859 -21.65039,17.30859 -17.23,14.13 -23.94844,36.00149 -26.39844,57.52149 -2.44,21.43 12.2393,35.90875 11.7793,57.71875 -0.21,9.91 -6.27993,19.20101 -6.91993,29.04101 -0.92,14.08 8.02032,22.4593 0.57032,35.5293 -8.72,15.29 -14.22149,28.88016 -8.27149,47.16016 0.49,1.51 2.31071,2.19976 2.72071,4.25976 1.86,9.32 -3.60008,15.33938 -12.58008,16.35938 -9.87,1.13 -19.80063,-4.10016 -30.39063,-1.41016 -11.73,2.98 -11.84945,17.14172 -24.43945,18.51172 -11.34,1.24 -21.31906,-8.22992 -31.78906,-12.16992 -12.51,-4.7 -18.57133,-2.33172 -30.611331,-0.26172 -2.100025,0.36329 -4.191553,-1.05565 -6.248047,0.62695 a 458.20569,463.86838 0 0 0 25.982418,35.69531 c 4.28511,-0.48548 9.23896,-2.10596 13.38672,-1.71093 9.61,0.92 14.09016,10.74968 25.16016,9.67968 4.43,-0.43 15.62976,-5.0407 19.50976,-7.4707 3.68,-2.3 7.36008,-7.33867 11.83008,-9.13867 19.73,-7.93 40.30891,17.29945 59.12891,5.18945 12.83,-8.25 18.60992,-29.41078 16.91992,-43.80078 -1.88,-16.07 -17.36844,-21.27984 -14.89844,-41.08984 1.5,-12.02 22.70938,-19.5693 23.60938,-26.5293 0.73,-5.6 -7.61008,-9.53969 -9.33008,-13.67969 -13.76,-33.07 -10.46086,-50.80125 -8.63086,-81.53125 0.82,-13.82 5.05047,-24.64898 11.48047,-37.95898 2.32,-4.81 6.79945,-9.06102 8.18945,-14.79102 2.03,-8.41 -1.03976,-17.30851 2.49024,-25.47851 3.82,-8.83 14.04039,-10.49032 20.65039,-16.32032 4.16,-3.68 7.40047,-9.22023 11.98047,-12.99023 10.16,-8.37 21.20023,-10.44094 33.99023,-11.96094 48.08,-5.72 100.79922,1.6311 148.69922,8.1211 35.33,4.78 60.05023,13.55859 96.74023,4.55859 37.84,-24.67 43.45102,-55.52844 48.79102,-93.14844 -1.39,-29.09 -12.58172,-54.05132 -10.01172,-83.86132 0.66,-7.76 3.85156,-16.16915 4.85156,-24.11915 2.82,-22.47 -5.27148,-45.16117 -2.77148,-66.70117 2.69,-23.16 23.14109,-21.04859 32.87109,-35.05859 4.15,-5.97 4.93016,-15.80078 9.16016,-22.80078 6.21,-10.29 17.17914,-14.99008 29.11914,-14.58008 10.7,0.37 17.77047,10.19031 28.98047,9.82031 9.18377,-0.2996 15.68278,-7.18677 23.52344,-12.57812 a 458.20569,463.86838 0 0 0 -31.77149,-22.71485 z" />
      <path
         id="path7"
         style="display:inline"
         class="cls-1"
         inkscape:label="path7"
         d="m 339.13477,791.39062 c -5.145,0.35875 -10.39985,2.07376 -11.96485,3.71876 -2.25,2.35 -2.94961,13.46085 -5.09961,17.88085 -3.58,7.35 -12.18992,13.80915 -20.66992,11.86915 -4,-0.92 -7.60117,-6.3093 -8.70117,-6.7793 -2.94,-1.27 -7.73828,-2.74 -10.98828,-4 6.95,5.49 6.95,11.36047 3,18.98047 2.75,0.86 9.99828,7.40023 11.98828,7.99023 1.79,0.53 5.98101,-0.56172 7.54101,1.98828 1.13,1.84 -1.20929,8.00149 -0.52929,11.52149 0.38695,2.01414 1.90596,2.3157 1.97851,2.46679 v 0.002 c 2.65,0.14 2.52078,-1.46922 3.30078,-3.19922 2.99,-6.64 5.39969,-18.5493 13.67969,-19.7793 1.09,-3.66 2.96922,-5.53094 6.94922,-4.96094 1.3,4.92 1.35102,10.26922 2.29102,15.19922 0.5,2.62 2.36,4.74024 2.75,8.24024 0.69,6.11 0.60976,21.70047 -8.99024,17.48047 -0.24,4.35 0.38078,9.28101 -0.44922,14.04101 -2.56,14.78 -15.97148,19.84969 -29.52148,16.92969 -0.23,2.67 0.17,5.34023 -1,7.99023 13.97756,-0.68678 23.23056,5.21325 23.0332,19.50196 a 458.20569,463.86838 0 0 0 8.91211,3.03125 c 0.0472,-14.17007 8.21556,-36.32982 20.05469,-43.96485 3.61,-2.33 7.4614,-2.10906 10.9414,-3.53906 6.63001,-2.73 11.73024,-11.08 0.99024,-11.5 4.74,-5.92 7.93883,-18.50977 5.79883,-25.75977 -1.58,-5.36 -10.77047,-2.52039 -11.73047,3.84961 -0.75,5.01 -0.62883,5.50969 -2.04883,10.42969 -1.42,4.92 -2.51055,9.57992 -5.56055,13.91992 -0.79,1.13 -8.27945,9.91078 -8.93945,10.05078 -6.35,1.34 1.94953,-14.8407 2.26953,-16.7207 2.51,-14.82 -7.36976,-27.67875 -4.75976,-44.21875 v 0.0195 c 1.82,-11.53 19.87929,-17.81976 16.77929,-28.25976 -1.125,-3.78 -6.15968,-4.77867 -11.30468,-4.41993 z" />
      <path
         id="path8"
         style="display:inline"
         class="cls-9"
         d="m 231.42578,828.91016 c -0.91547,-0.003 -1.81328,0.0289 -2.67578,0.1289 -7.98,7.03 -14.99938,17.09188 -26.60938,17.92188 -10.04723,0.71835 -22.96935,-9.90136 -34.30078,-6.29688 a 458.20569,463.86838 0 0 0 35.84571,28.45313 458.20569,463.86838 0 0 0 18.57031,11.62304 c 6.85256,-3.82355 13.56268,-5.40444 18.32422,-12.40039 8.69,-12.77 6.01992,-26.54906 -0.83008,-39.28906 l -0.01,-0.0117 c -2.655,0.21 -5.56804,-0.11953 -8.31445,-0.1289 z" />
      <path
         id="path9"
         style="display:inline"
         class="cls-1"
         d="m 218.22461,811.86328 c -8.84857,-0.0484 -15.42313,4.10375 -24.23438,5.90625 -8.16,1.67 -20.34968,2.95125 -28.67968,3.28125 -7.01809,0.27556 -13.70209,0.17881 -20.28907,-1.85156 a 458.20569,463.86838 0 0 0 19.38282,18.41601 c 10.58107,-7.39251 23.95398,-0.88032 35.75586,-1.70507 9.97,-0.7 19.76961,-5.83938 28.59961,-6.85938 3.44521,-0.39944 7.43825,0.27695 10.97461,0 -3.64019,-6.77892 -9.30805,-15.70114 -17.56446,-16.89062 -1.37,-0.1975 -2.68123,-0.28996 -3.94531,-0.29688 z m 21.50977,17.1875 c 0.002,0.003 0.004,0.007 0.006,0.01 l 0.01,-0.01 c -0.005,3.9e-4 -0.0107,-3.8e-4 -0.0156,0 z" />
      <path
         id="path10"
         style="display:inline"
         class="cls-1"
         d="m 797.18945,178.73047 c -7e-5,0.001 2.1e-4,0.003 0,0.004 -0.043,0.1507 -1.10992,0.40828 -0.54883,1.875 0.42,1.1 5.60032,8.77031 6.57032,9.57031 3.06482,2.52397 13.14551,6.17687 21.84179,9.23047 a 458.20569,463.86838 0 0 0 -9.84765,-11.9668 c -5.76371,-3.44171 -11.35239,-7.21384 -18.01563,-8.71289 z m 41.14649,38.2207 c -1.42609,3.27688 -3.32504,6.82342 -3.20508,8.71875 0.01,0.18 1.03906,1.11992 1.03906,2.41992 0,7.21 -0.61906,14.51055 0.96094,21.56055 0.57,-0.41 2.54945,-0.44953 3.93945,-1.51953 3.62485,-2.8056 5.77703,-9.14473 7.69727,-16.08008 a 458.20569,463.86838 0 0 0 -10.43164,-15.09961 z" />
      <path
         id="path11"
         style="display:inline"
         class="cls-9"
         d="m 798.17969,171.73047 c -0.63,2.63 -0.89,4.25023 -1,6.99023 6.6644,1.49931 12.25279,5.27265 18.01758,8.71485 a 458.20569,463.86838 0 0 0 -13.96289,-15.66407 c -1.01886,-0.006 -2.03748,-0.0179 -3.05469,-0.041 z" />
      <path
         id="path12"
         style="display:inline"
         class="cls-3"
         d="m 848.77344,232.0625 c -1.91893,6.93537 -4.06851,13.27252 -7.69336,16.07812 -1.39,1.07 -3.36945,1.10954 -3.93946,1.51954 -5.09,3.68 -6.53023,5.17023 -8.99023,10.99023 12.10821,9.8922 25.84959,-0.26459 30.71289,-12.6543 A 458.20569,463.86838 0 0 0 848.77344,232.0625 Z" />
      <path
         id="path13"
         style="display:inline"
         class="cls-1"
         d="m 798.83789,169.22266 c -0.22858,0.7833 -0.4485,1.61536 -0.6582,2.49804 1.01467,0.0239 2.03043,0.0368 3.04687,0.043 a 458.20569,463.86838 0 0 0 -2.38867,-2.54101 z" />
      <path
         id="path14"
         style="display:inline"
         class="cls-3"
         d="m 357.63086,883.99023 c -3.48,1.43 -7.33141,1.20907 -10.94141,3.53907 -11.84072,7.64572 -20.00971,29.81185 -20.05468,43.97265 a 458.20569,463.86838 0 0 0 10.48046,3.30469 c -4.48243,-21.00472 16.30591,-32.06138 20.51563,-50.81641 z" />
      <path
         id="path15"
         style="display:inline"
         class="cls-3"
         d="m 228.75781,829.05078 c -8.827,1.02314 -18.62222,6.15968 -28.58789,6.85938 -11.81367,0.82489 -25.18927,-5.68944 -35.76172,1.70898 a 458.20569,463.86838 0 0 0 3.44336,3.05469 c 11.33119,-3.60352 24.25189,7.0152 34.29883,6.29687 11.60927,-0.82994 18.61805,-10.89998 26.60742,-17.91992 z" />
      <path
         id="path16"
         style="display:inline"
         class="cls-9"
         d="m 294.69922,908.96094 c -1.61,0.08 -7.76828,0.71 -8.98828,1 -1.16589,0.27636 -3.89864,2.18569 -5.38867,3.45508 a 458.20569,463.86838 0 0 0 37.41015,15.05664 c 0.20181,-14.29654 -9.05239,-20.20834 -23.0332,-19.51172 z" />
      <path
         id="path17"
         style="display:inline"
         class="cls-1"
         d="m 273.12695,885.7832 c -0.5084,-0.007 -1.08609,0.0882 -1.74609,0.30664 -1.5,0.5 -1.99016,2.63039 -2.66016,3.90039 -0.55,1.04 -0.40976,2.50899 -1.50976,3.95899 -2.05235,2.6949 -7.31594,4.90398 -9.25196,8.54687 a 458.20569,463.86838 0 0 0 22.35547,10.91602 c 1.49081,-1.26939 4.21978,-3.17503 5.38477,-3.45117 h 0.0117 c -3.43,-2.59 -7.44149,-6.67094 -8.52149,-10.96094 -0.84281,-3.35312 0.85211,-13.14447 -4.0625,-13.2168 z" />
      <path
         id="path18"
         style="display:inline"
         class="cls-3"
         d="m 250.73047,880.99023 c -3.23802,4.15181 -10.92474,6.73852 -15.86914,7.95899 a 458.20569,463.86838 0 0 0 7.75976,5.15234 458.20569,463.86838 0 0 0 6.29493,3.53711 c 1.19369,-1.81071 6.51365,-4.81219 6.81445,-5.6582 0.54,-1.53 -0.09,-5.17024 1,-7.99024 h -0.01 z" />
      <path
         id="path19"
         style="display:inline"
         class="cls-9"
         d="m 268.7207,889.99023 c -3.62,4.35 -8.46023,6.59 -12.99023,2 -0.29108,0.84506 -5.60791,3.83185 -6.81055,5.65039 a 458.20569,463.86838 0 0 0 9.03906,4.85352 c 1.92817,-3.64186 7.19971,-5.84056 9.25196,-8.54492 1.1,-1.45 0.95976,-2.91899 1.50976,-3.95899 z" />
      <path
         id="path20"
         style="display:inline"
         class="cls-1"
         d="m 746.85352,209.93945 c -6.52422,0.25642 -12.81774,2.88438 -18.58399,9.25 -4.59,5.07 -6.44976,12.31094 -14.00976,13.46094 5.58,7.76 -0.60024,8.15023 -5.99024,10.99023 1.09,1.36001 2.03055,2.56922 2.06055,4.44922 0.11,6.99 -11.39961,21.19977 -12.09961,29.00977 -0.78,8.71 13.86883,24.8607 -2.95117,25.4707 0.61,0.95 6.85,18.58875 7.5,20.96875 1.58,5.77 1.83976,12.62094 3.75976,18.21094 6.38,18.57 26.83094,4.69906 12.71094,-10.21094 -0.19,-0.21 -1.76953,-0.15945 -2.51953,-0.93945 -3.47,-3.62 -7.63,-16.95938 -0.75,-17.85938 2.33,-0.3 5.33953,-0.10945 5.26953,2.81055 13.67,0.63 8.48047,35.12953 13.98047,38.51953 1.71,1.06 5.21984,-0.4007 5.83984,-2.2207 -0.76,-4.77 1.22016,-11.17031 1.16016,-15.32031 -0.04,-2.42 -1.95,-2.83 -2,-3 l -3.99024,0.40039 c 0.01,-7.02 -4.45945,-15.67953 -4.93945,-22.01953 -0.2,-2.7 0.57945,-4.05961 0.93945,-6.34961 -3.91,-1.51 -7.96023,-0.85 -11.99023,-1 -2.73,-0.1 -9.97961,1.01937 -10.84961,-1.64063 -0.87,-2.66 -0.50109,-25.64054 -0.12109,-29.81054 0.61,-6.68 4.07148,-18.15922 10.02148,-21.94922 2.22,-1.41 3.30922,-0.95102 4.94922,-1.54102 2.57,-0.93 2.34977,-2.76906 7.25977,-1.78906 1.71,0.34 9.00046,4.49929 9.73046,5.7793 -0.72,-7.79 3.46024,-9.98024 9.99024,-5.99024 0.61,-4.52 1.59,-6.83828 -1,-10.98828 -6.62,0.78 -10.45047,-6.17047 -5.98047,-10.48047 3.27,-3.16 18.01945,-4.76023 21.93945,-2.99023 0.52,0.24 7.79078,6.61945 8.55078,7.43945 2.61,2.79 2.93899,5.56125 4.45899,8.03125 7e-4,8.5e-4 0.005,0.003 0.006,0.004 0.12513,0.0872 1.41601,-0.41602 2.30469,1.22461 2.73,5.04 4.79046,13.42078 3.48046,19.05078 -0.54,2.32 -2.27101,3.22921 -2.79101,6.69922 -0.52,3.47 1.17086,7.23109 -2.61914,9.87109 -4.95,3.45 -11.22938,1.99914 -16.35938,0.11914 -0.67,4.03 -14.19047,5.84023 -17.98047,8.99023 7.36,-3.01 11.48024,3.98024 6.99024,9.99024 4.46,-0.43 5.34023,-0.88 9.99023,-2 10.39,-2.5 45.14993,-5.46071 53.91992,-1.4707 2.83001,1.28999 2.78844,5.68984 4.64844,6.33984 2.74,0.96 8.19133,-0.44914 11.36133,0.13086 -0.56,-2.12 4.43922,-4.52102 5.69922,-4.79102 8.32,-1.81 13.43055,-0.0382 22.31055,-4.6582 3.19,-1.66 12.66945,-9.67125 13.93945,-12.53125 0.0329,-0.0738 0.0641,-0.14833 0.0937,-0.22461 a 458.20569,463.86838 0 0 0 -7.20313,-13.4043 c -7.10411,9.13522 -8.9985,23.2348 -25.33007,22.66992 -3.99,-0.12999 -11.69977,-2.73101 -16.50977,-3.04101 -1.17,-0.08 -2.92094,1.16 -4.46094,1 -3.72,-0.39 -6.32929,-6.47024 -5.52929,-9.99023 -2.62,3.85999 -16.66961,12.20101 -21.34961,11.04101 -1.22,-0.31 -0.4211,-1.54078 -0.6211,-2.05078 -2.57,-6.42 -2.21922,-20.71016 2.55078,-25.91016 4.19,-4.57 6.50969,0.19071 10.42969,1.47071 1.91,0.63 3.84,0.1407 5,0.4707 -1.37,-5.58 -0.97,-12.64047 -2,-17.98047 -0.48,-2.47 -1.51,-4.06023 -3,-5.99023 -8.5e-4,-8.9e-4 -0.005,-0.005 -0.006,-0.006 -0.14122,-0.0968 -1.37304,0.21484 -1.71484,-0.23438 -1.33,-1.72 -4.52953,-8.69 -7.26953,-8.75 l -0.01,-0.01 c -0.67,-0.02 -2.83078,1.71945 -4.55078,1.93945 -9.92,1.28 -12.82008,-4.8493 -20.08008,-8.7793 -8.5275,-4.61812 -17.29726,-8.21053 -25.68554,-7.88086 z" />
      <path
         class="cls-1"
         d="m 303.69,765.11 c -7.04,5.99 -16.77,8.27 -20.78,18.68 -2.08,5.39 -1.62,13.87 -5.33,18.64 -2.95,3.79 -9.82,2.93 -10.86,7.62 -3.89,-0.36 -29.42,0.39 -26.94,-7.42 0.25,-0.77 11.96,-6.25 14.27,-7.75 26.93,-17.48 42.15,-41.11 37.38,-73.96 -2.14,-14.77 -11.9,-30.3 -0.13,-43.63 3.82,-4.32 13.81,-8.49 15.2,-14.81 1.94,-8.86 -8.45,-15.44 -8.64,-23.72 -0.19,-8.28 7.98,-22.43 9.82,-31.5 1.35,5.21 2.17,10.38 3.98,15.5 5.52,15.69 11.41,22.23 10.05,40.97 -1.02,14 -6.89,16.2 -12.2,26.76 -4.92,9.8 -8.79,26.09 -7.69,37.01 1.19,11.79 13.89,27.35 1.87,37.58 z"
         id="path21"
         style="display:inline" />
      <path
         class="cls-1"
         d="m 675.3,281.61 c -0.29,0.39 -2.54,-1 -3.05,3.45 -2.15,18.65 14.57,29.19 7.48,48.9 -0.92,2.55 -4.9,8.35 -5.28,9.95 -0.47,1.97 2.56,5.06 -2.19,5.26 0.1,-9.51 -0.04,-28.92 -1.23,-38.36 -1.68,-13.22 -16.42,-21.31 -14.64,-32.64 1.99,-12.64 22.27,-1.03 18.92,3.43 z"
         id="path22"
         style="display:inline" />
      <path
         class="cls-4"
         d="m 835.14,225.67 c 0.01,0.18 1.04,1.12 1.04,2.42 0,7.2 -0.62,14.51 0.96,21.56 -5.09,3.68 -6.53,5.17 -8.99,10.99 -3.18,7.49 -3.53,12.8 -3,20.98 -1.17,-0.08 -2.92,1.16 -4.46,1 -3.72,-0.39 -6.33,-6.47 -5.53,-9.99 1,-1.47 0.59,-2.94 1,-4 0.31,-0.8 1.71,-1.32 1.99,-3.54 0.74,-5.92 -2.32,-6.12 -6.98,-7.44 -1.37,-5.58 -0.97,-12.64 -2,-17.98 5.08,-1.95 7.1,4.13 9.71,4.85 9.3,2.56 9.17,-17.4 16.26,-18.83 z"
         id="path23"
         style="display:inline" />
      <path
         class="cls-3"
         d="m 303.69,765.11 c 0.13,3.54 -0.81,7.22 -1.96,10.53 -2.79,8.01 -7.77,12.55 -9.75,22.22 -1.51,7.38 -1.97,13.02 0.72,20.2 -2.94,-1.26 -7.74,-2.74 -10.99,-4 -6.25,-2.42 -7.84,-3.34 -14.98,-4 1.03,-4.7 7.91,-3.84 10.86,-7.62 3.71,-4.77 3.25,-13.25 5.33,-18.64 4.01,-10.41 13.74,-12.69 20.78,-18.68 z"
         id="path24"
         style="display:inline" />
      <path
         class="cls-3"
         d="m 762.21,292.6 c 5.58,12.94 -12.03,18.32 -13.76,27.7 -0.97,5.29 1.06,14.39 -6.22,16.26 -0.03,-2.41 -1.95,-2.82 -2,-3 -1.04,-3.75 -1.4,-18.28 -1.04,-22.51 0.69,-8.04 3.92,-15.57 13.02,-16.45 4.46,-0.43 5.34,-0.88 9.99,-2 z"
         id="path25"
         style="display:inline" />
      <path
         class="cls-3"
         d="m 333.66,824.05 c 1.73,6.59 2.36,13.22 4.81,19.66 0.9,2.36 4.31,9.52 5.71,11.27 2.78,3.46 7.25,1.54 6.45,6.03 -1.42,4.92 -2.51,9.58 -5.56,13.92 -0.79,1.13 -8.28,9.91 -8.94,10.05 -6.35,1.34 1.95,-14.84 2.27,-16.72 2.51,-14.81 -7.37,-27.67 -4.76,-44.22 z"
         id="path26"
         style="display:inline" />
      <path
         id="path27"
         style="display:inline"
         class="cls-3"
         d="m 874.08984,275.61914 c -1.27,2.86 -10.74945,10.87125 -13.93945,12.53125 -8.88,4.63 -13.99055,2.86016 -22.31055,4.66016 -1.26,0.27 -6.25921,2.66906 -5.69922,4.78906 3.70001,0.67 9.33977,4.74101 14.50977,5.04101 11.52,0.66 23.15906,-13.5714 28.28906,-22.6914 0.32051,-0.57294 0.61637,-1.07842 0.81055,-1.53516 a 458.20569,463.86838 0 0 0 -1.36523,-2.66992 c -0.0933,-0.0416 -0.19193,-0.0837 -0.29493,-0.125 z" />
      <path
         class="cls-3"
         d="m 719.26,331.56 c -0.19,-0.2 -1.77,-0.16 -2.52,-0.94 -3.48,-3.62 -7.63,-16.96 -0.75,-17.86 2.33,-0.3 5.34,-0.11 5.27,2.81 -0.11,4.43 -3.54,10.58 -2,15.98 z"
         id="path28"
         style="display:inline" />
      <path
         class="cls-1"
         d="m 686.29,216.68 c -13.55,-0.24 -19.29,6.04 -30.96,10.98 -0.89,-4.65 2.43,-7.73 3.71,-11.76 3.48,-10.93 4.29,-20.75 11.44,-30.52 13.09,-17.88 45.07,-30.02 66.77,-28.13 -3.12,6.95 -3.61,12 -4.01,19.47 -17.87,-2.59 -40.82,-3.31 -49.18,16.27 -0.83,1.95 -0.41,3.39 -0.76,4.7 -0.48,1.78 -2.07,2.81 -1.97,5.4 0.2,5.1 5.11,8.64 4.96,13.58 z"
         id="path29"
         style="display:inline" />
      <path
         class="cls-9"
         d="m 686.29,216.68 c 0.15,-4.94 -4.76,-8.48 -4.96,-13.58 -0.1,-2.59 1.48,-3.62 1.97,-5.4 6.35,-2.41 13.46,-4.13 19.67,-6.8 3.52,-1.51 6.65,-4.92 10.23,-5.75 6.47,-1.5 13.81,0.99 20.05,-1.43 -0.13,2.76 0.3,5.68 -0.08,8.41 -1.39,9.85 -14.72,22.85 -23.91,26.04 -9.19,3.19 -13.48,-1.31 -22.96,-1.48 z"
         id="path30"
         style="display:inline" />
      <path
         class="cls-9"
         d="m 783.19,182.72 c -0.35,2.27 -1.07,6.44 -1.03,8.45 0.09,5.31 4.52,17.49 2.53,21.53 -3.08,6.27 -18.65,-3.13 -23.21,-4.77 -3.26,-1.17 -11.08,-2.22 -12.58,-3.15 -3.63,-2.25 1.35,-10.55 1.33,-14.07 3.69,0.14 8.35,-0.15 11.7,-1.79 2.62,-1.27 3.85,-4.07 5.75,-5.24 4.93,-3 10.22,-1.68 15.51,-0.97 z"
         id="path31"
         style="display:inline" />
      <path
         id="path32"
         style="display:inline"
         class="cls-9"
         d="m 833.19141,209.94922 c -2.58353,0.24034 -5.33204,0.56987 -6.05079,0.74023 -4.12,0.97 -15.17101,6.51969 -17.54101,9.92969 -3.74,5.37 -0.0494,8.64102 -3.43945,13.04102 1.49,1.92 2.52,3.52023 3,5.99023 5.08,-1.95 7.09898,4.12961 9.70898,4.84961 9.3,2.56 9.17172,-17.40008 16.26172,-18.83008 -0.11999,-1.89576 1.77888,-5.44058 3.20508,-8.7168 a 458.20569,463.86838 0 0 0 -5.14453,-7.0039 z" />
      <path
         id="path33"
         style="display:inline"
         class="cls-1"
         d="m 767.18555,155.53906 c -8.19421,0.0665 -15.99568,1.93641 -19.81641,6.8418 -2.94876,3.79841 -7.46546,15.73989 -0.14844,17.33789 0.13565,-0.32592 4.05095,-4.58912 4.5,-4.98828 8.79,-7.78 24.19899,-6.28 33.45899,0 0.64248,-2.30376 5.15947,-11.65827 5.0625,-14.33985 a 458.20569,463.86838 0 0 0 -0.87696,-0.87695 c -5.39711,-2.30454 -13.98547,-4.04106 -22.17968,-3.97461 z m -19.96485,24.17969 v 0.002 h 0.01 c -0.003,-6.6e-4 -0.007,-0.001 -0.01,-0.002 z" />
      <path
         class="cls-9"
         d="m 284.71,833.04 c 2.74,0.86 9.99,7.4 11.99,7.99 -4.73,5.67 -6.89,12.52 -9.99,18.98 -6.44,2.02 -12.03,5.85 -18.46,8.04 -1.65,0.56 -3.14,0.56 -4.51,0.95 3.65,-4.6 2.37,-26.24 6.68,-27.78 4.31,-1.54 11.97,0.32 11.3,-8.18 0.93,0.13 2.28,-0.22 3,0 z"
         id="path34"
         style="display:inline" />
      <path
         class="cls-3"
         d="m 690.29,230.67 c 6.94,9.28 4.78,3.29 12.55,2.06 3.59,-0.57 7.95,0.47 11.43,-0.06 5.58,7.76 -0.61,8.15 -5.99,10.99 -1.4,0.74 -7.19,3.08 -7.99,4 -5.25,-4.41 -15.41,-2.01 -19.43,3.05 -2.06,2.59 -1.77,8.72 -5.55,8.94 -0.26,-0.21 -5.66,-2.94 -5.99,-3 -0.08,-5.9 4.38,-18.25 9.96,-20.51 1.5,-0.61 3.68,-0.16 5.03,-0.97 2.18,-1.3 0.66,-6.1 6,-4.5 z"
         id="path35"
         style="display:inline" />
      <path
         class="cls-3"
         d="m 265.73,826.05 c 3.9,3.66 4.6,5.96 10.61,6.9 1.82,0.28 3.73,-0.14 5.37,0.09 0.67,8.51 -6.97,6.64 -11.3,8.18 -4.33,1.54 -3.04,23.19 -6.68,27.78 -3.57,1 -6.37,3.14 -10.99,2 1.02,-7.99 4.41,-14.24 4.98,-21.49 0.4,-5.06 -1.36,-10.72 -0.98,-14.47 0.38,-3.75 4.39,-10.24 8.99,-8.99 z"
         id="path36"
         style="display:inline" />
      <path
         class="cls-1"
         d="m 690.29,230.67 c -5.34,-1.6 -3.82,3.19 -6,4.5 -1.35,0.81 -3.53,0.36 -5.03,0.97 -5.58,2.27 -10.03,14.61 -9.96,20.51 -7.09,-1.28 -17.63,9.14 -14.53,-7.04 1.4,-7.3 7.09,-16.71 13.82,-20.13 4.32,-2.2 14.58,-4.12 19.02,-2.63 1.82,0.61 1.82,2.72 2.66,3.83 z"
         id="path37"
         style="display:inline" />
      <path
         class="cls-1"
         d="m 705.99,145.03 c 7.21,7.23 -4.25,14.56 -10.18,16.73 -4.41,1.61 -7.7,1.37 -11.57,2.41 -4.14,1.11 -6.82,4.1 -10.92,4.55 -1.94,-2.08 6.39,-18.18 9.03,-20.43 5.1,-4.36 18.31,-8.62 23.65,-3.26 z"
         id="path38"
         style="display:inline" />
      <path
         class="cls-3"
         d="m 733.24,176.72 c -0.04,0.66 0.04,1.34 0,2 l -0.99,1.49 0.99,0.51 c -0.06,0.99 0.05,2 0,3 -6.24,2.42 -13.57,-0.07 -20.05,1.43 -3.57,0.83 -6.71,4.24 -10.23,5.75 -6.21,2.67 -13.32,4.39 -19.67,6.8 0.36,-1.32 -0.07,-2.75 0.76,-4.7 8.36,-19.59 31.31,-18.87 49.18,-16.27 z"
         id="path39"
         style="display:inline" />
      <path
         class="cls-3"
         d="m 785.19,174.73 c -0.64,2.28 -1.66,5.8 -2,7.99 -5.29,-0.71 -10.58,-2.03 -15.51,0.97 -1.91,1.16 -3.14,3.96 -5.75,5.24 -3.35,1.63 -8.01,1.92 -11.7,1.79 -0.02,-2.77 -3.75,-8.95 -3,-10.99 0.12,-0.32 4.05,-4.59 4.5,-4.99 8.79,-7.78 24.21,-6.28 33.46,0 z"
         id="path40"
         style="display:inline" />
      <path
         class="cls-9"
         d="m 700.28,247.65 c -0.49,0.56 -5.2,12.44 -5.56,13.92 -0.68,2.74 -0.22,11.96 -3.06,12.95 -6.71,2.35 -12.23,-11.62 -16.36,-14.88 3.78,-0.22 3.49,-6.35 5.55,-8.94 4.02,-5.06 14.18,-7.46 19.43,-3.05 z"
         id="path41"
         style="display:inline" />
      <path
         class="cls-3"
         d="m 797.18,224.67 c 1.76,-7.54 -0.86,-16.5 8.25,-20.22 6.39,-2.61 9.47,0.34 14.5,2.93 0.92,0.47 1.18,1.87 1.5,2.01 1.76,0.78 4.05,0 5.72,1.3 -4.11,0.97 -15.16,6.53 -17.54,9.93 -3.74,5.37 -0.05,8.64 -3.44,13.04 -0.09,-0.12 -1.37,0.21 -1.72,-0.24 -1.32,-1.72 -4.53,-8.69 -7.27,-8.75 z"
         id="path42"
         style="display:inline" />
      <path
         class="cls-1"
         d="m 202.99,796.87 c 1.67,0.99 5.99,-0.67 7.86,0.64 1.63,1.14 1.33,5.51 -0.05,7.07 -2.5,2.81 -26.89,8.46 -27.97,7.48 -0.2,-0.19 -1.01,-4.75 -0.97,-5.44 0.26,-4.22 8.32,-12.81 12.51,-13.48 8.19,-1.32 6.46,2.45 8.63,3.73 z"
         id="path43"
         style="display:inline" />
      <path
         id="path44"
         style="display:inline"
         class="cls-1"
         d="m 768.0293,139.58594 c -1.98062,1.63801 -3.76057,3.55491 -5.2793,5.22461 l -3.5293,5.92968 c 6.35434,-1.30918 16.93998,4.2387 23.99414,2.76563 A 458.20569,463.86838 0 0 0 768.0293,139.58594 Z" />
      <path
         class="cls-1"
         d="m 270.45,697.34 c 8.68,-1.34 19.76,25.72 4.62,26.52 -10.34,0.54 -14.97,-24.92 -4.62,-26.52 z"
         id="path45"
         style="display:inline" />
      <path
         id="path46"
         style="display:inline"
         class="cls-1"
         d="m 755.88867,129.3125 c -7.17236,3.03259 -17.50733,20.30603 -4.3789,17.23828 0.56,-0.13 9.03945,-3.62078 9.93945,-4.05078 2.3096,-1.11787 3.95713,-2.67331 4.94336,-4.3418 a 458.20569,463.86838 0 0 0 -10.50391,-8.8457 z" />
      <path
         class="cls-1"
         d="m 286.7,860.01 c -2.93,6.11 -6.05,9.95 -12.48,13 -6.78,3.21 -14.16,2.38 -17.49,10.98 l -5.99,-3 c 2.71,-3.47 1.54,-6.38 2,-9.99 4.62,1.14 7.41,-0.99 10.99,-2 1.38,-0.39 2.86,-0.38 4.51,-0.95 6.43,-2.19 12.02,-6.02 18.46,-8.04 z"
         id="path47"
         style="display:inline" />
      <path
         class="cls-1"
         d="m 167.23,807.52 c -0.51,0.36 -0.82,3.11 -3.45,1.11 -1.37,-1.05 -1.22,-4.28 -0.74,-5.84 0.24,-0.78 9.85,-11.3 10.86,-12.12 9.25,-7.57 19.12,-1.07 7.94,7.94 -3.81,3.07 -9.74,5.45 -14.6,8.92 z"
         id="path48"
         style="display:inline" />
      <path
         class="cls-1"
         d="m 650.04,201.84 c 11.18,-3.15 6.02,24.72 -6.05,20.69 -6.17,-2.05 3.74,-8.81 4.2,-10.57 0.69,-2.64 -3.22,-8.7 1.85,-10.12 z"
         id="path49"
         style="display:inline" />
      <path
         class="cls-1"
         d="m 272.72,761.11 c -0.58,-3.94 0.99,-7.62 1.09,-11.48 0.07,-3.06 -1.5,-5.81 -0.93,-8.75 0.96,-4.94 7.93,-7.07 8.82,-2.24 1.23,6.64 -0.77,21.41 -8.99,22.47 z"
         id="path50"
         style="display:inline" />
      <path
         class="cls-1"
         d="m 265.73,826.05 c -4.6,-1.25 -8.6,5.14 -8.99,8.99 -3.86,-2.92 -14.69,-15.3 -4.44,-15.93 7.29,-0.45 9.19,2.95 13.44,6.94 z"
         id="path51"
         style="display:inline" />
      <path
         class="cls-1"
         d="m 148.63,801.33 c 1.17,3.27 8.48,3.69 4.23,8.25 -6.34,6.81 -18.14,-9.67 -4.23,-8.25 z"
         id="path52"
         style="display:inline" />
      <path
         class="cls-1"
         d="m 270.47,684.36 c 7.02,-1.31 6.33,9.88 3.61,10.75 -6.47,2.07 -11.33,-9.31 -3.61,-10.75 z"
         id="path53"
         style="display:inline" />
      <path
         class="cls-1"
         d="m 733.24,180.72 -0.99,-0.51 0.99,-1.49 c -0.04,0.66 0.04,1.34 0,2 z"
         id="path54"
         style="display:inline" />
      <path
         class="cls-4"
         d="m 305.68,857.02 c 2.95,9.63 -13.58,17.83 -14.83,24.71 -0.5,2.76 2.43,13.95 4.84,16.25 -0.18,0.22 0.07,2.2 0,3 -0.23,2.67 0.17,5.34 -1,7.99 -1.61,0.08 -7.77,0.71 -8.99,1 -3.43,-2.59 -7.44,-6.67 -8.52,-10.96 -0.93,-3.7 1.24,-15.24 -5.81,-12.91 -1.49,0.49 -1.99,2.62 -2.66,3.9 -3.62,4.35 -8.46,6.58 -12.99,2 0.54,-1.54 -0.09,-5.17 1,-7.99 3.33,-8.6 10.71,-7.76 17.49,-10.98 6.42,-3.05 9.54,-6.88 12.48,-13 3.1,-6.46 5.26,-13.31 9.99,-18.98 1.79,0.53 5.98,-0.55 7.54,1.99 1.13,1.84 -1.21,8 -0.53,11.52 0.39,2.03 1.94,2.32 1.98,2.47 z"
         id="path55"
         style="display:inline" />
      <path
         class="cls-9"
         d="m 323.67,854.02 c 0.92,5.54 -0.66,8.15 -0.09,12.55 0.29,2.2 2.24,0.55 2.09,3.43 -0.23,4.35 0.38,9.28 -0.45,14.04 -2.57,14.78 -15.97,19.85 -29.52,16.93 0.07,-0.79 -0.18,-2.78 0,-3 0.15,-0.18 1.48,0.84 2.31,-1.2 1.74,-4.25 -0.22,-7.49 2.86,-13.1 5.37,-9.8 13.18,-16.21 18.65,-28.26 1.13,-2.49 1.94,-1.24 4.14,-1.39 z"
         id="path56"
         style="display:inline" />
      <path
         class="cls-3"
         d="m 322.67,834.04 c -2.25,7.57 -0.18,12.86 1,19.98 -2.2,0.15 -3.01,-1.1 -4.14,1.39 -5.47,12.05 -13.28,18.46 -18.65,28.26 -3.08,5.61 -1.12,8.85 -2.86,13.1 -0.84,2.04 -2.17,1.03 -2.31,1.2 -2.41,-2.3 -5.34,-13.49 -4.84,-16.25 1.25,-6.87 17.78,-15.08 14.83,-24.71 2.65,0.14 2.52,-1.47 3.3,-3.2 2.99,-6.64 5.4,-18.55 13.68,-19.78 z"
         id="path57"
         style="display:inline" />
      <path
         class="cls-4"
         d="m 322.67,834.04 c 1.09,-3.65 2.97,-5.53 6.95,-4.96 1.29,4.92 1.34,10.27 2.29,15.2 0.5,2.62 2.36,4.74 2.75,8.24 0.69,6.11 0.6,21.7 -8.99,17.48 0.15,-2.89 -1.8,-1.23 -2.09,-3.43 -0.57,-4.4 1.01,-7.01 0.09,-12.55 -1.18,-7.12 -3.25,-12.41 -1,-19.98 z"
         id="path58"
         style="display:inline" />
      <path
         class="cls-9"
         d="m 741.23,253.64 c 0.88,1.55 0.53,5.13 2.96,7.53 3.41,3.39 20.42,5.99 19.02,14.44 -0.67,4.03 -14.19,5.84 -17.98,8.99 -6.73,5.6 -11.62,12.24 -12.99,20.98 -3.91,-1.51 -7.96,-0.85 -11.99,-1 -1.55,-13.39 -5.45,-28.55 -1.3,-41.76 1.64,-5.21 5.92,-7.86 5.29,-13.19 2.57,-0.92 2.35,-2.77 7.26,-1.79 1.7,0.34 9,4.5 9.73,5.78 z"
         id="path59"
         style="display:inline" />
      <path
         class="cls-9"
         d="m 750.22,236.66 c 3.59,-0.42 3.55,-3.8 10.51,-3.02 6.1,0.68 7.03,5.89 10.17,6.81 1.03,0.3 9.28,1.6 8.29,-1.79 0.07,0.11 1.4,-0.45 2.31,1.23 2.73,5.04 4.79,13.42 3.48,19.05 -0.54,2.32 -2.25,3.09 -2.79,6.7 -5.05,-2.17 -9.97,0.12 -15.25,-2.24 -4.47,-2 -9.4,-8.12 -12.73,-11.75 -0.27,-0.3 -0.31,-1.37 -2,-3 -0.32,-0.31 -0.69,-0.81 -1,-1 0.61,-4.52 1.59,-6.84 -1,-10.99 z"
         id="path60"
         style="display:inline" />
      <path
         class="cls-4"
         d="m 751.22,247.65 c 0.31,0.19 0.67,0.69 1,1 l 2,3 c 3.32,3.63 8.26,9.75 12.73,11.75 5.27,2.36 10.2,0.06 15.25,2.24 -0.52,3.47 1.17,7.22 -2.62,9.87 -4.95,3.45 -11.23,2 -16.36,0.12 1.4,-8.45 -15.61,-11.05 -19.02,-14.44 -2.42,-2.41 -2.07,-5.98 -2.96,-7.53 -0.72,-7.79 3.46,-9.98 9.99,-5.99 z"
         id="path61"
         style="display:inline" />
      <path
         class="cls-3"
         d="m 724.25,249.65 c 0.63,5.33 -3.65,7.97 -5.29,13.19 -4.15,13.21 -0.25,28.37 1.3,41.76 -2.73,-0.1 -9.97,1.06 -10.85,-1.64 -0.88,-2.7 -0.51,-25.65 -0.12,-29.81 0.61,-6.68 4.07,-18.16 10.02,-21.95 2.21,-1.41 3.31,-0.95 4.95,-1.54 z"
         id="path62"
         style="display:inline" />
      <path
         class="cls-4"
         d="m 752.22,294.6 c -9.1,0.87 -12.33,8.41 -13.02,16.45 -0.36,4.23 0,18.76 1.04,22.51 l -3.99,0.4 c 0.01,-7.02 -4.45,-15.68 -4.94,-22.02 -0.21,-2.7 0.58,-4.06 0.94,-6.35 1.37,-8.74 6.25,-15.38 12.99,-20.98 7.36,-3.01 11.48,3.98 6.99,9.99 z"
         id="path63"
         style="display:inline" />
      <path
         class="cls-3"
         d="m 779.2,238.66 c 0.99,3.39 -7.26,2.09 -8.29,1.79 -3.14,-0.92 -4.07,-6.13 -10.17,-6.81 -6.96,-0.78 -6.92,2.6 -10.51,3.02 -6.62,0.78 -10.45,-6.16 -5.98,-10.48 3.27,-3.16 18.03,-4.76 21.94,-2.99 0.52,0.23 7.79,6.62 8.55,7.44 2.6,2.79 2.94,5.56 4.46,8.03 z"
         id="path64"
         style="display:inline" />
      <path
         class="cls-3"
         d="m 811.16,257.64 c 4.66,1.33 7.72,1.52 6.98,7.44 -0.28,2.22 -1.68,2.74 -1.99,3.54 -3.05,0.7 -4.17,-2.69 -6.54,-3.04 -7.13,-1.04 -14.81,9.96 -16.43,16.02 -2.57,-6.43 -2.23,-20.71 2.55,-25.91 4.2,-4.57 6.52,0.19 10.43,1.47 1.91,0.63 3.84,0.14 5,0.47 z"
         id="path65"
         style="display:inline" />
      <path
         class="cls-9"
         d="m 816.16,268.63 c -0.41,1.06 0,2.52 -1,4 -2.62,3.85 -16.67,12.19 -21.35,11.04 -1.23,-0.3 -0.42,-1.54 -0.62,-2.05 1.62,-6.06 9.3,-17.07 16.43,-16.02 2.37,0.35 3.49,3.73 6.54,3.04 z"
         id="path66"
         style="display:inline" />
      <path
         class="cls-1"
         d="m 754.22,251.65 -2,-3 c 1.69,1.63 1.72,2.7 2,3 z"
         id="path67"
         style="display:inline" />
      <path
         class="cls-8"
         d="m 825.15,489.13 c -1.81,-2.92 -8.17,-3.19 -5.07,-8.27 2.47,-4.05 15.67,-10.12 19.6,-14.7 4.24,-4.94 6.22,-13.6 10.03,-18.97 6.2,-8.75 24.41,-17.55 34.9,-18.1 6.24,-0.33 14.48,-0.33 12.53,8.03 -2.92,0.73 -6.91,16.09 -8.83,19.67 -8.9,16.6 -34.6,18.76 -39.04,27.96 -2,4.13 -0.6,7.55 -1.37,11.63 -0.9,4.8 -5.79,8.78 -2.76,13.74 -10.14,4.13 -10.73,0.49 -9,-9 0.35,-1.94 2.21,-2.92 1.97,-6.37 -0.56,-8.03 -7.11,-13.93 -12.97,-5.63 z"
         id="path68"
         style="display:inline" />
      <path
         class="cls-8"
         d="m 755.15,812.13 c -0.06,0.18 -2.11,1.16 -2.55,2.92 -4.16,16.73 -3.32,23.87 -18.54,35.49 -5.89,4.5 -16.14,6.96 -18.44,14.56 -1.63,5.37 1.12,7.83 -5.47,11.03 -1.73,-2.48 -3.94,-2.73 -4,-7 -0.02,-1.6 1.55,-4 1,-5.99 -3.3,-0.15 -6.45,-0.5 -9,1.99 -0.92,-1.45 -5.29,-2.46 -3.93,-6.38 0.45,-1.31 12.43,-3.98 14.42,-8.63 1.14,-2.67 0.13,-5.63 0.63,-8.37 3.5,-18.92 4.7,-21.64 22.21,-29.79 4.54,-2.11 28.03,-13.31 23.67,0.17 z"
         id="path69"
         style="display:inline" />
      <path
         class="cls-6"
         d="m 899.15,438.13 c 2.65,4.52 -3.1,21.65 -6.02,26.48 -8.83,14.56 -16.87,13.19 -29.21,19.79 -13,6.95 -2.04,18.92 -18.77,25.73 -3.03,-4.96 1.86,-8.94 2.76,-13.74 0.77,-4.09 -0.63,-7.5 1.37,-11.63 4.44,-9.2 30.14,-11.36 39.04,-27.96 1.92,-3.58 5.91,-18.94 8.83,-19.67 0.22,-0.06 0.78,-0.06 1,0 z"
         id="path71"
         style="display:inline" />
      <path
         id="path70"
         class="cls-8"
         d="m 911.65625,373.7832 c -5.31992,0.10971 -17.34153,2.71176 -19.74609,3.60742 -17.68,6.61001 -13.02985,25.00016 -27.08985,32.91016 -2.56,1.44 -13.12078,4.35945 -13.55078,4.93945 -0.37,0.49 -0.35875,4.11024 0.0312,4.74024 0.52,0.86 3.77961,0.81039 4.84961,1.15039 5.71,1.81 3.94,1.44 4,8 0.21,0.12 0.37969,1.39883 1.67969,1.79883 1.7,0.53 3.59031,0.14117 5.32031,0.20117 -0.67,-21.36 29.76977,-21.28024 38.00977,-33.49024 3.30488,-4.91383 4.02354,-13.65526 7.97656,-17.92187 a 458.20569,463.86838 0 0 0 -1.48047,-5.93555 z"
         style="display:inline" />
      <path
         id="path72"
         class="cls-6"
         d="m 755.16016,812.13086 c -0.06,0.18 -2.11078,1.15992 -2.55078,2.91992 -4.17001,16.73 -3.32907,23.86828 -18.53907,35.48828 -5.89,4.5 -16.13945,6.96055 -18.43945,14.56055 -1.63,5.37 1.1193,7.83125 -5.4707,11.03125 1.10039,1.5843 1.80981,4.70991 3.5,5.83398 a 458.20569,463.86838 0 0 0 5.30273,-3.45898 c 1.46603,-4.2874 2.93534,-11.56037 8.26758,-14.79492 15.17,-9.19 25.14875,-12.78125 30.21875,-32.78125 1.0395,-4.09805 4.87702,-19.25372 -2.28906,-18.79883 z"
         style="display:inline" />
      <path
         class="cls-7"
         d="m 608.01,82.27 c -0.05,5.3 2.73,15.58 -1.37,19.85 -0.36,0.37 -8.52,4.88 -9.02,4.98 -1.43,0.29 -12.21,0.69 -13.64,0.48 -9.6,-1.4 -4.54,-18.74 0.47,-23.15 4.52,-3.97 17.91,-4.24 23.55,-2.17 z"
         id="path73"
         style="display:inline" />
      <path
         id="path74"
         style="display:inline"
         class="cls-6"
         d="m 913.13477,379.71289 c -3.94978,4.27368 -4.66149,13.0135 -7.97461,17.91797 -8.24,12.21 -38.68977,12.12828 -38.00977,33.48828 8.21,0.27 8.02899,-5.77906 12.95899,-10.53906 8.82999,-8.52 20.00054,-7.14969 27.56054,-15.42969 2.22325,-2.4334 5.7474,-8.21105 8.1211,-13.84766 a 458.20569,463.86838 0 0 0 -2.65625,-11.58984 z" />
      <path
         class="cls-2"
         d="m 660.84,101.79 c -2.01,1.02 -3.62,1.9 -6,1.19 -0.37,-0.11 -5.54,-4.94 -5.75,-5.27 -1.34,-2.1 -1.4,-7.72 -0.92,-10.06 1.02,-4.95 17.62,-16.45 21.49,-8.54 1.33,2.72 2.01,16.89 -0.91,19.13 -1.85,1.42 -4.16,0.46 -5.95,1.08 -1.37,0.48 -1.54,2.26 -1.96,2.47 z"
         id="path75"
         style="display:inline" />
      <path
         class="cls-7"
         d="m 211.88,278.88 c 1.22,-2.31 -0.53,-7 4.25,-8.35 0.85,-0.24 9.33,0.4 10.49,0.64 8.14,1.69 3.7,18.44 -1.01,21.92 -6.96,5.15 -18.41,-0.4 -17.44,-9.35 0.43,-3.97 3.18,-3.85 3.71,-4.85 z"
         id="path77"
         style="display:inline" />
      <path
         class="cls-7"
         d="m 603.9,71.89 c -2.48,1.79 -13.7,2.07 -16.21,-0.79 -2.02,-2.31 -0.95,-17.24 0.9,-19.03 2.35,-2.28 10.64,-2.5 13.62,-1.5 5.18,1.74 5.82,18.35 1.69,21.31 z"
         id="path78"
         style="display:inline" />
      <path
         class="cls-7"
         d="m 516.91,70.38 c 1.98,2.24 0.98,10.76 -0.78,13.23 -3.35,4.68 -13.26,5.48 -18.44,4.49 -7.51,-1.43 -2.36,-20.22 9.96,-20.04 1.68,0.02 8.4,1.34 9.27,2.32 z"
         id="path79"
         style="display:inline" />
      <path
         class="cls-7"
         d="m 173.51,684.51 c -0.66,0.53 -0.81,2.06 -2.01,2.44 -6.32,1.98 -16.74,-1.36 -16.1,-9.07 0.84,-10.3 16.67,-18.73 20.99,-7.49 2.23,5.78 1.65,10.46 -2.88,14.12 z"
         id="path80"
         style="display:inline" />
      <path
         class="cls-8"
         d="m 682.15,859.13 c -6.19,3.19 -3.82,2.21 -8.51,5.99 -4.69,3.78 -8.19,4.64 -14.49,4.01 -0.04,-0.88 -1.5,-2.06 -0.85,-4.25 0.78,-2.65 4.47,-3.33 5.38,-4.8 0.96,-1.56 -0.93,-4.21 1.44,-7.47 2.12,-2.91 12.75,-8 16.27,-7.3 5.58,1.1 5.32,11.46 0.75,13.82 z"
         id="path81"
         style="display:inline" />
      <path
         class="cls-2"
         d="m 195.37,733.37 c -0.62,0.31 -0.72,2.8 -3.94,3.55 -8.54,2.01 -12.21,-5.03 -8.79,-11.8 2.86,-5.66 19.98,-10.57 21.51,-3.49 0.44,2.03 0.22,7.38 -0.73,9.27 -2.01,4.01 -5.45,1.2 -8.05,2.47 z"
         id="path82"
         style="display:inline" />
      <path
         class="cls-7"
         d="m 427.38,60.89 c -0.84,-0.87 -2.22,-7.71 -2.15,-9.19 0.57,-11.63 21.99,-15.91 19.84,-1.14 -1.1,7.59 -4.4,5.15 -7.9,7.1 -1.48,0.83 -5.19,8.02 -9.8,3.23 z"
         id="path83"
         style="display:inline" />
      <path
         class="cls-2"
         d="m 89.45,660.81 c 2.53,1.73 5.49,1.12 3.73,6.65 -0.53,1.65 -4.78,1.38 -5.04,1.68 -0.49,0.55 3.82,6.01 -3.44,7.03 -6.14,0.86 -12.16,-1.06 -13.4,-7.78 -1.56,-8.46 6.6,-5.14 9.88,-6.74 1.95,-0.95 1.22,-5.31 6.32,-3.34 1.35,0.52 1.42,2.14 1.95,2.51 z"
         id="path85"
         style="display:inline" />
      <path
         class="cls-7"
         d="m 217.97,266.95 c -0.89,0.5 -9.78,0.42 -11.13,-0.01 -7.57,-2.41 -1.82,-15.88 6.27,-17.43 10.09,-1.93 7.44,15.99 4.86,17.44 z"
         id="path86"
         style="display:inline" />
      <path
         class="cls-6"
         d="m 682.15,859.13 c 6.88,6.88 -8.99,16.8 -14.81,18.69 -10.12,3.29 -7.86,-0.38 -8.19,-8.69 6.31,0.63 9.66,-0.1 14.49,-4.01 4.83,-3.91 2.32,-2.81 8.51,-5.99 z"
         id="path87"
         style="display:inline" />
      <path
         class="cls-7"
         d="m 156.9,226.38 c 3.41,3.52 1.43,15.77 -4.46,17.54 -7.65,2.29 -9.17,-1.47 -8.73,-8.3 0.33,-5.19 9.23,-13.33 13.2,-9.23 z"
         id="path88"
         style="display:inline" />
      <path
         class="cls-7"
         d="m 81.01,289.27 c 0.33,0.21 2.05,6.53 2.09,7.52 0.43,9.06 -15.33,9.46 -15.92,0.78 -0.49,-7.18 10.13,-10.71 13.83,-8.3 z"
         id="path90"
         style="display:inline" />
      <path
         class="cls-7"
         d="m 90.88,336.31 c 10.46,-3.01 7.27,17.95 2.78,18.83 -6.33,1.25 -7.08,-2.13 -7.4,-7.68 -0.2,-3.48 0.44,-9.95 4.62,-11.16 z"
         id="path91"
         style="display:inline" />
      <path
         class="cls-7"
         d="m 169,655.99 c -0.75,1.18 -5.35,0.66 -6.62,1.39 -0.77,0.45 -0.89,3.06 -2.93,3.62 -9.38,2.59 -5.95,-22.25 7.08,-14.75 2.78,1.6 3.8,7.63 2.47,9.73 z"
         id="path92"
         style="display:inline" />
      <path
         class="cls-7"
         d="m 470.46,85.84 c -6.35,-7.99 14.1,-22.23 13.7,-4.17 -0.17,7.78 -10.27,8.49 -13.7,4.17 z"
         id="path93"
         style="display:inline" />
      <path
         class="cls-7"
         d="m 42.82,590.82 c -1.25,1.79 -9.68,7.23 -11.64,5.28 -0.28,-0.28 -1.93,-6.92 -2.01,-7.57 -1.6,-12.71 20.88,-8.11 13.65,2.28 z"
         id="path94"
         style="display:inline" />
      <path
         class="cls-2"
         d="m 138,747.98 c -0.64,0.41 -5.37,0.4 -6.37,0.16 -4.49,-1.08 -6.9,-15.33 4.06,-14.86 7.59,0.33 3.82,13.74 2.31,14.7 z"
         id="path95"
         style="display:inline" />
      <path
         class="cls-6"
         d="m 825.15,489.13 c 5.86,-8.3 12.41,-2.4 12.97,5.63 0.24,3.45 -1.62,4.43 -1.97,6.37 -1.02,-7.17 -7.96,-5.93 -10.11,-8.43 -1.11,-1.29 -0.61,-3.13 -0.89,-3.57 z"
         id="path96"
         style="display:inline" />
      <path
         class="cls-7"
         d="m 68.3,284.97 c -2.89,-5.95 5.72,-15.87 9.91,-9.42 4.19,6.45 -3.92,13.09 -9.91,9.42 z"
         id="path97"
         style="display:inline" />
      <path
         class="cls-7"
         d="m 165.01,619.27 c 3.59,5.83 -3.06,11.28 -8.83,10.84 -1.65,-6.3 1.67,-12.25 8.83,-10.84 z"
         id="path98"
         style="display:inline" />
      <path
         class="cls-2"
         d="m 85.04,636.25 c -0.89,2.76 -0.82,5.12 -3.51,6.77 -8.96,5.48 -9.27,-15.15 3.51,-6.77 z"
         id="path99"
         style="display:inline" />
      <path
         class="cls-6"
         d="m 698.15,865.13 c 2.55,-2.5 5.7,-2.15 9,-1.99 0.54,1.99 -1.03,4.4 -1,5.99 -9.23,2.91 -6.39,-1.47 -8,-4 z"
         id="path100"
         style="display:inline" />
      <path
         class="cls-6"
         d="m 856.15,421.13 c 5.71,1.81 3.94,1.44 4,8 -3.17,-1.78 -7.87,-4.32 -4,-8 z"
         id="path101"
         style="display:inline" />
      <path
         class="cls-8"
         d="m 899.15,438.13 -1,-1 c 0.82,0.23 0.67,0.43 1,1 z"
         id="path102"
         style="display:inline" />
    </g>
    <path
       id="path1473"
       style="display:none;fill:#ffe6d5"
       d="M -434.52344,319.94727 V -1472.1875 H 1703.502 V 319.94727 Z M 468.14258,-26.4375 A 458.20569,463.86838 0 0 0 926.34766,-490.30664 458.20569,463.86838 0 0 0 468.14258,-954.17578 458.20569,463.86838 0 0 0 9.9355469,-490.30664 458.20569,463.86838 0 0 0 468.14258,-26.4375 Z"
       inkscape:label="mask"
       transform="scale(1,-1)" />
  </g>
  <g
     id="Layer_2"
     data-name="Layer 2"
     sodipodi:insensitive="true"
     style="display:inline"
     transform="translate(-11.235701,-31.886358)">
    <path
       id="path1948"
       class="cls-3"
       d="m 464.81,114.12 c -30.65,0.14 -59.92,2.76 -85.68,7.31 -75.87,13.4 -89.65,41.46 -89.65,93.2 v 68.33 h 179.3 v 22.78 H 222.19 c -52.11,0 -97.74,31.32 -112.01,90.9 -16.46,68.3 -17.19,110.91 0,182.22 12.75,53.08 43.18,90.9 95.29,90.9 h 61.65 v -81.92 c 0,-59.18 51.2,-111.38 112.01,-111.38 h 179.09 c 49.85,0 89.65,-41.05 89.65,-91.11 V 214.62 c 0,-48.59 -40.99,-85.09 -89.65,-93.2 -30.8,-5.13 -62.76,-7.46 -93.41,-7.31 z m -96.96,54.96 c 18.52,0 33.64,15.37 33.64,34.27 0,18.9 -15.12,34.06 -33.64,34.06 -18.52,0 -33.64,-15.23 -33.64,-34.06 0,-18.83 15.06,-34.27 33.64,-34.27 z" />
    <path
       id="path1950"
       class="cls-5"
       d="m 670.23,305.75 v 79.62 c 0,61.73 -52.33,113.68 -112.01,113.68 H 379.13 c -49.06,0 -89.65,41.99 -89.65,91.11 v 170.73 c 0,48.59 42.25,77.17 89.65,91.11 56.76,16.69 111.18,19.7 179.09,0 45.14,-13.07 89.65,-39.37 89.65,-91.11 V 692.56 H 468.78 v -22.78 h 268.74 c 52.11,0 71.53,-36.35 89.65,-90.9 18.72,-56.16 17.92,-110.18 0,-182.22 -12.88,-51.88 -37.47,-90.9 -89.65,-90.9 H 670.23 Z M 569.51,738.12 c 18.59,0 33.64,15.23 33.64,34.06 0,18.83 -15.06,34.27 -33.64,34.27 -18.58,0 -33.64,-15.37 -33.64,-34.27 0,-18.9 15.12,-34.06 33.64,-34.06 z" />
  </g>
</svg>
