<svg enable-background="new 0 0 500 500" version="1.1" viewBox="0 0 500 500" xmlns="http://www.w3.org/2000/svg">
 <g id="Color" transform="matrix(0 1 -1 0 486.99 6.9954)">
  <linearGradient id="SVGID_1_" x1="240" x2="240" y1="479.17" y2="14.825" gradientUnits="userSpaceOnUse">
   <stop stop-color="#fff" offset=".1227"/>
   <stop stop-color="#fff" offset=".8098"/>
   <stop stop-color="#ffc836" offset=".8589"/>
  </linearGradient>
  <path d="m240 14.825c-159.65 138.6-32.456 442.98-25.438 458.77s25.438-7.018 25.438-7.018 18.42 22.808 25.438 7.018 134.21-320.18-25.438-458.77z" fill="url(#SVGID_1_)"/>
  <path d="m177 347.5s37 120.5 109 65c-5.5 16-19.5 59.5-27 59.5s-19.5-9.5-19.5-9.5-14.5 17-19.5 11-29-55.5-43-126" fill="#ffc836"/>
  <path d="m169 303.67s56.667 179.33 128 67.333c8.667-39.333 43.332-174-2.667-270.67-33.333-9.333-117.33-2-119.33 61.334 0 38 26.031 49.892 26.031 49.892s-22.602-1.2981-36.83-45.892c9-35.667 20.799-70.667 20.799-70.667s36.668-53.333 85.334-43.667c16 23.667 42.666 76.167 46.166 126.67s2.5 113.5-21.5 206c-6.5 25.5-15.5 47-15.5 47s-61.5 80-106.5-98c-1-6-4-29.333-4-29.333" fill="#366a96"/>
  <path d="m259.5 193.5s-24.5-4.5-30-29.5 13.5-38.5 25-42.5 38.5-5 58 25.5c3.5 21.5 14 97.5-4 174-16 25-34 26.5-38.5 27.5 14-8.5 40.089-25.62 44.5-69 1.5-14.75 3.488-12.741 2.25-21.75-8.25-60-17.75-87.75-32.25-104.75-17-22.5-36-24.5-45.5-11s-2 29.5 3.5 37 10.5 11.5 17 14.5z" fill="#366a96"/>
  <path d="m166 282s53 196 137 65c12-67 17-93 14-162-10-37-56-113.33-119-60-21.667 19.333-17.791 78.878 3 86.133-14.867-1.7333-45.269-45.92-9-99.133 12-15 60.333-37.667 103-17 15 43 45 118 0 289-19 24-65 101-127-78 0-13-2-24-2-24" fill="#ffc836"/>
 </g>
 <g id="Outline" transform="matrix(0 1 -1 0 486.99 6.9954)">
  <path d="m240 14.825c-159.65 138.6-32.456 442.98-25.438 458.77s25.438-7.018 25.438-7.018 18.42 22.808 25.438 7.018 134.21-320.18-25.438-458.77zm24.383 450.08c-6.727 15.137-24.383-6.727-24.383-6.727s-17.657 21.863-24.384 6.727c-6.726-15.135-128.65-306.9 24.384-439.75 153.03 132.85 31.109 424.61 24.383 439.75z"/>
 </g>
 <g transform="translate(-330.87 175.65)">
  <path d="m573.25 14.78c-4.5836 0.0213-8.9609 0.41222-12.812 1.0937-11.346 2.0045-13.406 6.2001-13.406 13.938v10.219h26.812v3.4062h-26.812-10.062c-7.7925 0-14.616 4.6837-16.75 13.594-2.4618 10.213-2.571 16.586 0 27.25 1.9059 7.9379 6.4576 13.594 14.25 13.594h9.2188v-12.25c0-8.8499 7.6572-16.656 16.75-16.656h26.781c7.455 0 13.406-6.1382 13.406-13.625v-25.531c0-7.2663-6.13-12.725-13.406-13.938-4.606-0.76673-9.3851-1.115-13.969-1.0937zm-14.5 8.2187c2.7696 0 5.0312 2.2986 5.0312 5.125 0 2.8163-2.2617 5.0938-5.0312 5.0938-2.7795-1e-6 -5.0312-2.2774-5.0312-5.0938 0-2.8264 2.2518-5.125 5.0312-5.125z" fill="#366a96"/>
  <path d="m603.97 43.436v11.906c0 9.2308-7.8259 17-16.75 17h-26.781c-7.3358 0-13.406 6.2785-13.406 13.625v25.531c0 7.2663 6.3186 11.54 13.406 13.625 8.4873 2.4956 16.626 2.9466 26.781 0 6.7502-1.9544 13.406-5.8876 13.406-13.625v-10.219h-26.781v-3.4062h26.781 13.406c7.7925 0 10.696-5.4354 13.406-13.594 2.7993-8.3989 2.6802-16.476 0-27.25-1.9258-7.7574-5.6039-13.594-13.406-13.594h-10.063zm-15.062 64.656c2.7795 1e-5 5.0312 2.2774 5.0312 5.0938 0 2.8264-2.2518 5.125-5.0312 5.125-2.7696 0-5.0312-2.2986-5.0312-5.125 0-2.8163 2.2617-5.0938 5.0312-5.0938z" fill="#ffc836"/>
 </g>
 <g fill="none">
  <path transform="matrix(-.98798 -.15457 .21112 -.97746 0 0)" d="m-388.09-236.69a203.49 77.976 0 0 1 266.07-42.008 203.49 77.976 0 0 1 109.64 101.95 203.49 77.976 0 0 1-266.06 42.019 203.49 77.976 0 0 1-109.67-101.95l187.87 29.962z"/>
  <path transform="matrix(.98599 .16681 -.22806 .97365 0 0)" d="m22.342 162.94a193.36 87.405 0 0 1 252.82-47.088 193.36 87.405 0 0 1 104.18 114.28 193.36 87.405 0 0 1-252.81 47.1 193.36 87.405 0 0 1-104.21-114.28l178.51 33.585z"/>
  <path d="m-1.6678 164.58a286.21 117.15 0 0 1 374.23-63.111 286.21 117.15 0 0 1 154.21 153.17 286.21 117.15 0 0 1-374.22 63.127 286.21 117.15 0 0 1-154.25-153.17l264.24 45.014z"/>
 </g>
 <g transform="rotate(51.32 168.66 519.76)" aria-label="sandiegopython.org">
  <path d="m1.3886 161.9c1.4964-1.3747 1.8032-3.0037 0.67749-4.2291-1.0283-1.1194-2.1336-0.6906-4.0069 0.22651-0.94893 0.48068-1.4333 0.68663-1.8338 0.25067-0.4438-0.48309-0.125-1.0584 0.36987-1.513 0.58913-0.54122 1.3368-0.81528 2.4051-0.90589l-0.28382-1.586c-1.2109-0.0174-2.2503 0.45949-3.1222 1.2605-1.5082 1.3855-1.7835 3.0724-0.66858 4.286 0.94173 1.0251 1.9508 0.72814 3.7181-0.0915 1.0521-0.51028 1.5992-0.86078 2.0105-0.41304 0.40051 0.43596 0.20556 1.0279-0.40714 1.5907-0.67161 0.617-1.6384 0.98369-2.9219 1.0765l0.37616 1.5447c1.3004 0.0438 2.6384-0.53364 3.6871-1.497z"/>
  <path d="m2.8617 156.99c0.94215 1.1723 2.6141 1.2861 3.9236 0.23365 0.87302-0.7016 1.4527-1.8448 1.435-3.0417l0.30803 0.30667c0.42563 0.37637 1.0205 0.45251 1.694-0.0887 0.1746-0.14032 0.39152-0.3557 0.64072-0.6586l-1.0925-1.3594c-0.30689 0.20558-0.51937 0.17107-0.81003-0.19061l-1.6738-2.0828c-1.3932-1.7336-3.2624-1.8119-5.1207-0.31845-0.99773 0.80183-1.6652 1.8103-2.0747 3.0631l1.4183 0.66652c0.33001-1.0452 0.73065-1.7982 1.454-2.3796 0.97279-0.78178 1.8401-0.69875 2.5016 0.12438l0.28064 0.3492c-0.56436 0.16618-1.2332 0.55997-1.7819 1.001-1.6587 1.333-2.1246 3.1032-1.1022 4.3753zm4.3364-2.9307c-0.071242 0.54989-0.42221 1.1604-0.92108 1.5613-0.73583 0.59135-1.5407 0.45821-1.9416-0.0407-0.49112-0.61111-0.21076-1.5138 0.66225-2.2154 0.41156-0.33076 0.99061-0.6319 1.52-0.7905l0.53121 0.661c0.1303 0.16213 0.18599 0.48685 0.14926 0.82426z"/>
  <path d="m18.432 148.37-3.0152-4.2758c-0.94052-1.3337-2.2525-2.4447-3.9655-1.2368-1.1899 0.83908-1.841 2.0813-1.7424 3.304l-0.89441-1.2684-1.5822 1.1157 4.8317 6.8518 1.7522-1.2356-2.8215-4.0012c-0.31939-1.0082 0.06716-2.1814 0.77326-2.6793 0.67994-0.47948 1.4265-0.28151 2.201 0.81686l2.7109 3.8443z"/>
  <path d="m17.345 144.05c1.2858 2.0643 3.7133 2.8143 5.6825 1.5878 0.97784-0.60905 1.646-1.685 1.6174-2.9112l0.30631 0.43126c0.38422 0.49582 1.0659 0.56133 1.7178 0.1553 0.20372-0.12689 0.41768-0.29785 0.71491-0.57723l-0.92203-1.4803c-0.32928 0.16739-0.52252 0.0992-0.76783-0.2946l-4.9062-7.877-1.8199 1.1335 2.5208 4.0472c-0.97442-0.50522-2.2125-0.52579-3.2582 0.12555-1.847 1.1504-2.1629 3.6091-0.8856 5.6599zm6.174-2.526c0.18695 0.84489-0.28777 1.838-0.98041 2.2694-1.1408 0.71055-2.5445 0.30303-3.2804-0.87852-0.71055-1.1408-0.59289-2.6467 0.50718-3.3318 0.73338-0.45679 1.9069-0.3583 2.6963 0.24331z"/>
  <path d="m24.056 133.68 1.8601-1.0662-1.0583-1.8462-1.8601 1.0662zm4.7502 8.2871 1.8601-1.0662-4.1694-7.2738-1.8601 1.0662z"/>
  <path d="m35.848 138.24c1.6381-0.87247 2.4804-2.3543 2.4153-3.7699l-1.8647 0.41304c0.08334 0.73511-0.46865 1.5367-1.2171 1.9353-0.98854 0.52649-2.2326 0.30084-2.9482-0.80452l5.7194-3.0461c-0.05449-0.17038-0.16823-0.41798-0.29609-0.65805-1.068-2.0053-3.4637-3.0316-5.8785-1.7455s-2.9716 3.8486-1.851 5.9528c1.0906 2.0477 3.5343 2.994 5.9209 1.7229zm-4.2964-3.4039c-0.49533-1.1683-0.089-2.3455 0.92778-2.887 1.0309-0.54905 2.2345-0.2293 2.9416 0.82617z"/>
  <path d="m43.796 134.08c1.0235-0.49283 1.7678-1.455 1.8559-2.5629l0.45812 0.95146c0.70801 1.4704-0.032 2.6258-1.2429 3.2089-0.98028 0.47201-2.1111 0.48377-3.0279 0.055l-0.55954 1.5302c1.2862 0.60599 2.6451 0.66203 4.2885-0.12927 2.4219-1.1661 3.5495-3.3606 2.4736-5.595l-3.4637-7.1936-1.6867 0.81212 0.63859 1.3263c-1.0001-0.60172-2.1715-0.748-3.3392-0.18576-2.0759 0.99954-2.6845 3.4236-1.6364 5.6004 0.99954 2.0759 3.2234 3.1539 5.2416 2.1821zm-0.09399-1.8549c-1.1821 0.56918-2.5479 0.0192-3.1448-1.2205-0.57612-1.1965-0.33908-2.6958 0.84303-3.265 0.80729-0.38871 1.9136-0.19331 2.683 0.51947l0.86765 1.802c0.05928 0.82384-0.4127 1.7614-1.2488 2.164z"/>
  <path d="m53.591 129.69c2.5067-1.0964 3.2024-3.6185 2.2791-5.7294-0.93608-2.1402-3.2685-3.3205-5.7606-2.2306-2.4921 1.09-3.2234 3.6102-2.2874 5.7505 0.92325 2.1109 3.2621 3.3059 5.7688 2.2095zm-3.7458-3.0943c-0.58344-1.334-0.13346-2.7008 0.9953-3.1945 1.1288-0.49368 2.4315 0.0891 3.0149 1.4231 0.58986 1.3486 0.13346 2.7008-0.9953 3.1945-1.1288 0.49368-2.4251-0.0745-3.0149-1.4231z"/>
  <path d="m63.601 125.53c1.9762-0.78933 2.6905-3.1421 1.7824-5.4155-0.87834-2.1991-3.1477-3.3946-5.2427-2.5578-1.1738 0.46885-1.8844 1.4074-2.1019 2.5452l-0.53413-1.3373-1.7385 0.69437 4.3739 10.951 1.9911-0.79526-1.8101-4.5319c0.88801 0.71352 2.0615 0.93398 3.2799 0.44733zm-1.3452-1.4268c-0.84694 0.33828-1.9164-0.01-2.6231-0.74411l-0.72998-1.8276c-0.03522-0.86461 0.607-1.7586 1.3648-2.0613 1.2333-0.49259 2.5581 0.14985 3.0803 1.4574 0.49258 1.2333 0.11154 2.6949-1.092 3.1756z"/>
  <path d="m68.771 125.09 0.63974 1.7422c0.40459-0.0122 0.75156-0.0885 1.067-0.20429 1.3518-0.49635 2.0357-1.6509 1.9991-2.8646l-0.15916-10.646-1.9225 0.70593 0.2719 6.4964-4.2521-5.0349-2.0877 0.76659 5.9989 6.7286c0.08531 1.4856-0.05819 1.9304-0.59889 2.1289-0.21027 0.0772-0.57778 0.14398-0.95632 0.18071z"/>
  <path d="m80.927 118.58-0.95976-1.4635c-0.2057 0.18913-0.58211 0.52151-1.0058 0.66711-0.42368 0.14561-0.81424 0.043-1.0218-0.51169l-1.3312-3.8736 1.6645-0.57202-0.53562-1.5585-1.6645 0.57202-0.88403-2.5723-2.0276 0.69682 0.88403 2.5723-1.0441 0.35881 0.53562 1.5585 1.0441-0.35881 1.5652 4.5545c0.48362 1.4072 1.609 1.6295 2.7287 1.2447 0.86249-0.29641 1.5907-0.88505 2.0522-1.3144z"/>
  <path d="m89.548 116.25-1.598-4.982c-0.50334-1.5692-1.4637-2.9919-3.5205-2.3322-1.2036 0.38606-2.0795 1.3223-2.3463 2.5337l-1.4807-4.6164-2.0416 0.65483 3.5673 11.122 2.0416-0.65483-1.4954-4.662c-8e-3 -1.0728 0.71665-2.0614 1.4632-2.3008 0.83795-0.26878 1.5313 0.16414 1.932 1.4134l1.4367 4.4792z"/>
  <path d="m95.098 114.76c2.6243-0.7737 3.6304-3.1888 2.9789-5.3987-0.66058-2.2407-2.8268-3.7038-5.4357-2.9346-2.609 0.76918-3.6503 3.178-2.9897 5.4186 0.65154 2.21 2.8222 3.6885 5.4466 2.9148zm-3.3287-3.5392c-0.41173-1.3966 0.20594-2.6963 1.3877-3.0447s2.4012 0.39303 2.8129 1.7896c0.41626 1.4119-0.20594 2.6963-1.3877 3.0447s-2.3966-0.37769-2.8129-1.7896z"/>
  <path d="m108.17 110.94-1.3681-5.05c-0.42675-1.5752-1.2788-3.0684-3.3019-2.5203-1.4053 0.38073-2.4426 1.3248-2.7687 2.5072l-0.40584-1.498-1.8686 0.50624 2.1923 8.0923 2.0694-0.56063-1.2803-4.7256c0.0453-1.0566 0.81032-2.0264 1.6442-2.2523 0.80305-0.21756 1.4366 0.22414 1.788 1.5214l1.23 4.5403z"/>
  <path d="m109.94 110.5 1.7051-0.43599-0.57074-2.2322-1.7052 0.43598z"/>
  <path d="m117.1 108.88c2.6597-0.64154 3.7853-3.0033 3.2451-5.2431-0.54775-2.2709-2.6381-3.8405-5.2822-3.2027-2.6442 0.63779-3.8046 2.9915-3.2569 5.2624 0.54024 2.2398 2.6343 3.8249 5.294 3.1834zm-3.1476-3.7011c-0.34141-1.4154 0.34046-2.6826 1.5381-2.9715 1.1976-0.28888 2.3785 0.51258 2.7199 1.928 0.34516 1.431-0.34046 2.6826-1.5381 2.9715-1.1976 0.28888-2.3747-0.49702-2.7199-1.928z"/>
  <path d="m126.17 99.925-0.42755-1.9046c-0.0972 0.0054-0.20645 0.02995-0.42501 0.07901-0.98862 0.27112-1.7832 1.1874-2.112 2.4255l-0.39251-1.7485-1.9202 0.43106 1.8364 8.1804 2.0919-0.46961-1.1109-4.9488c0.23036-1.0192 1.1989-1.745 2.4599-2.0444z"/>
  <path d="m131.91 105.43c1.1122-0.2315 2.0665-0.9858 2.4191-2.0398l0.21519 1.0338c0.33258 1.5978-0.66419 2.5407-1.98 2.8146-1.0652 0.22172-2.1655-0.0395-2.9518-0.67666l-0.91199 1.3502c1.1022 0.89824 2.4074 1.2803 4.1931 0.90857 2.6316-0.54778 4.2551-2.4056 3.7497-4.8336l-1.627-7.8165-1.8327 0.38148 0.29997 1.4411c-0.82546-0.8251-1.9271-1.2495-3.1959-0.98541-2.2556 0.46952-3.4308 2.6753-2.9385 5.0406 0.46952 2.2556 2.3678 3.838 4.5608 3.3815zm0.35601-1.8228c-1.2845 0.26737-2.4774-0.59565-2.7578-1.9428-0.27062-1.3001 0.32092-2.698 1.6054-2.9654 0.8772-0.18259 1.9037 0.27379 2.4786 1.1511l0.40757 1.958c-0.14111 0.81383-0.82523 1.61-1.7338 1.7991z"/>
 </g>
 <text font-family="Raleway" font-size="40px" letter-spacing="0px" word-spacing="0px" style="line-height:1.25;shape-inside:url(#rect142903);white-space:pre" xml:space="preserve"/>
</svg>
